<?xml version="1.0" standalone="no"?>
<!DOCTYPE svg PUBLIC "-//W3C//DTD SVG 1.1//EN" "http://www.w3.org/Graphics/SVG/1.1/DTD/svg11.dtd">
<svg version="1.1" xmlns="http://www.w3.org/2000/svg" xmlns:xlink="http://www.w3.org/1999/xlink"><metadata>This SVG WebFont was generated by YouWorkForThem.
</metadata><defs><font horiz-adv-x="652" id="ywftsvg"><font-face ascent="800" bbox="-68 -344 1182 960" cap-height="729" descent="-200" font-family="" font-stretch="normal" font-weight="400" panose-1="0 0 0 0 0 0 0 0 0 0" underline-position="0" underline-thickness="0" unicode-range="U+000D-FB06" units-per-em="1000" x-height="555"/><missing-glyph horiz-adv-x="250"/><glyph d="M215 795h58v-29h29v-29h29v-58h29v-29h-29v-29h-29v-29h-29v58h-29v58h-29v-29h-31v-29h-29v-95h203v30h29v58h29v29h29v-117h87v-59h-29v-29h-58v-350h58v29h29v-87h-29v-43h-29v-44h-29v29h-29v29h-58v29h-58v58h29v29h29v321h-58v36h-116v-29h-29v-386h29v-58h31v-29 h-118v29h-29v29h-29v29h-29v29h29v29h29v357h-58v30h29v29h29v88h29v29h29v29h29v29h29v29h31v29z" glyph-name="uniE00C" horiz-adv-x="553" unicode="ft"/><glyph d="M501 795h58v-29h30v-29h29v-58h29v-29h-29v-30h-29v-29h-30v59h-29v58h-29v-29h-29v-29h-29v-96h116v-29h-29v-22h-58v-29h-29v-387h29v-58h29v-29h-117v29h-29v29h-30v29h-9v30h9v29h30v357h-170v-29h-29v-387h29v-58h30v-29h-118v29h-29v29h-29v29h-29v30h29v29h29v357 h-58v29h29v29h29v89h29v29h30v29h29v29h29v29h30v29h58v-29h29v-29h29v-117h-29v-29h-29v59h-29v58h-29v-29h-30v-29h-29v-96h199v96h29v29h30v29h29v29h29v29h29v29z" glyph-name="uniFB00" horiz-adv-x="643" unicode="ff"/><glyph d="M213 792h58v-29h29v-29h29v-58h29v-29h-29v-29h-29v-30h-29v59h-29v58h-29v-29h-29v-29h-29v-95h258v-29h29v-29h29v-29h29v-29h-58v-320h29v29h29v-87h-29v-43h-29v-44h-29v29h-43v29h-44v29h-29v29h29v29h29v320h-29v-29h-29v94h-113v-29h-29v-385h29v-58h29v-29h-116 v29h-29v29h-29v29h-29v29h29v29h29v356h-58v29h29v29h29v88h29v29h29v29h29v29h29v29h29v29z" glyph-name="uniFB01" horiz-adv-x="510" unicode="fi"/><glyph d="M243 792h78v-29h29v-29h29v-29h29v-29h29v18h29v-47h-14v-29h-15v-502h29v29h30v-87h-30v-43h-29v-44h-29v29h-43v29h-44v29h-29v29h29v29h29v531h-22v29h-21v29h-64v-29h-29v-29h-29v-29h-29v-66h131v-29h-44v-22h-58v-29h-29v-492h29v-58h29v-29h-116v29h-29v29h-29v29 h-30v30h30v29h29v462h-59v29h30v29h29v59h29v29h29v29h29v29h29v29h29v29h29v29zM467 694v29h29v-29h-29z" glyph-name="uniFB02" horiz-adv-x="511" unicode="fl"/><glyph d="M185 501v-27h-29v-387h29v-58h30v-29h-118v29h-29v29h-29v29h-29v30h29v29h29v355h-58v31h29v29h29v89h29v29h30v29h29v29h29v29h30v29h58v-29h29v-29h29v-117h-29v-29h-29v59h-29v58h-29v-29h-30v-29h-29v-91h200v88h29v29h29v29h29v29h29v29h29v29h58v-29h29v-29h29 v-58h29v-29h-29v-29h-29v-30h-29v59h-29v58h-29v-29h-29v-29h-29v-95h258v-29h29v-29h29v-29h29v-29h-58v-320h29v29h29v-87h-29v-43h-29v-44h-29v29h-43v29h-44v29h-29v29h29v29h29v320h-29v-29h-29v94h-113v-29h-29v-385h29v-58h29v-29h-116v29h-29v29h-29v29h-29v29h29 v29h29v356h-171z" glyph-name="uniFB03" horiz-adv-x="798" unicode="ffi"/><glyph d="M754 694v29h29v-29h-29zM156 559h200v59h29v29h29v29h29v29h29v29h29v29h29v29h78v-29h29v-29h29v-29h29v-29h29v18h29v-47h-14v-29h-15v-502h29v29h30v-87h-30v-43h-29v-44h-29v29h-43v29h-44v29h-29v29h29v29h29v531h-22v29h-21v29h-64v-29h-29v-29h-29v-29h-29v-66 h131v-29h-44v-22h-58v-29h-29v-492h29v-58h29v-29h-116v29h-29v29h-29v29h-30v30h30v29h29v462h-171v-27h-29v-387h29v-58h30v-29h-118v29h-29v29h-29v29h-29v30h29v29h29v355h-58v31h29v29h29v89h29v29h30v29h29v29h29v29h30v29h58v-29h29v-29h29v-117h-29v-29h-29v59h-29 v58h-29v-29h-30v-29h-29v-91z" glyph-name="uniFB04" horiz-adv-x="798" unicode="ffl"/><glyph glyph-name=".notdef" horiz-adv-x="250"/><glyph glyph-name="glyph1" horiz-adv-x="0"/><glyph glyph-name="glyph1" horiz-adv-x="0"/><glyph glyph-name="space" horiz-adv-x="180" unicode=" "/><glyph d="M30 700h58v-29h29v-505h-58v30h-29v504zM30 116h58v-29h29v-87h-58v29h-29v87z" glyph-name="exclam" horiz-adv-x="148" unicode="!"/><glyph d="M40 700h93v-29h-12v-58h-11v-58h-12v-44h-23v44h-12v58h-11v58h-12v29zM145 700h94v-29h-12v-58h-12v-58h-11v-44h-24v44h-11v58h-12v58h-12v29z" glyph-name="quotedbl" horiz-adv-x="279" unicode="&quot;"/><glyph d="M506 700h99v-87h-14v-44h-14v-45h-14v-10h93l-21 -66h-86v-40h-15v-51h-14v-36h-13v-51h-14v-28h88l-22 -68h-94v-50h-14v-45h-14v-41h-14v-38h-97v58h14v49h14v38h14v29h-168v-50h-14v-45h-14v-41h-14v-38h-98v58h14v49h14v38h14v29h-92l22 68h98v47h14v53h13v51h14v44 h15v11h-100l21 66h93v40h14v53h14v55h14v38h97v-87h-14v-44h-14v-45h-14v-10h168v40h14v53h13v55h14v38zM228 270v-28h167v47h14v53h14v51h14v44h14v11h-167v-40h-14v-51h-14v-36h-14v-51h-14z" glyph-name="numbersign" horiz-adv-x="666" unicode="#"/><glyph d="M243 770h31v-70h30v-29h61v-29h62v-30h63v30h30v-59h-30v-29h-32v-29h-31v-29h-92v29h-31v29h-30v-175h122v-29h31v-29h31v-58h32v-88h-32v-29h-31v-29h-31v-29h-31v-30h-30v-29h-31v-29h-30v-73h-31v73h-32v29h-62v29h-62v30h-61v-30h-31v59h31v29h31v29h30v29h94v-29 h30v-29h32v175h-125v29h-31v29h-30v59h-31v87h31v29h30v29h31v29h31v30h32v29h30v29h32v70zM274 292v-175h61v58h30v29h-30v59h-31v29h-30zM149 525v-29h32v-58h30v-29h31v174h-61v-58h-32z" glyph-name="dollar" horiz-adv-x="521" unicode="$"/><glyph d="M542 700h116v-87h-29v-44h-29v-45h-29v-58h-29v-58h-30v-51h-30v-36h-29v-51h-29v-51h-29v-45h-29v-50h-29v-45h-29v-41h-29v-38h-117v58h30v49h29v38h29v54h29v42h29v48h29v53h29v51h29v44h29v58h29v59h29v53h30v55h30v38zM635 404h85v-21h42v-22h43v-21h21v-213h-21 v-21h-22v-21h-21v-21h-21v-22h-21v-21h-21v-21h-85v21h-43v21h-43v22h-21v213h21v21h22v21h21v21h22v21h21v22h21v21zM137 700h86v-21h42v-22h43v-21h21v-213h-21v-21h-21v-21h-22v-21h-21v-22h-21v-21h-21v-21h-86v21h-42v21h-43v22h-21v213h21v21h21v21h22v21h21v21h21v22 h21v21zM593 319v-192h21v-21h42v-21h43v-21h21v21h21v192h-21v21h-43v21h-42v21h-21v-21h-21zM95 615v-192h21v-21h42v-21h44v-21h21v21h21v192h-21v21h-43v21h-43v21h-21v-21h-21z" glyph-name="percent" horiz-adv-x="837" unicode="%"/><glyph d="M48 730h29v-29h321v-30h30v-29h29v-29h29v-88h-29v29h-263v-29h29v-29h29v-29h29v-29h29v-59h-53v-29h-31v-29h-30v-29h-31v-58h-32v-88h32v-30h31v-29h30v29h62v30h41v29h27v29h26v117h-59v-29h-29v58h29v29h30v29h29v30h175v-30h-29v-29h-29v-233h29v-30h29v30h29v-59 h-29v-29h-29v-29h-29v-29h-29v29h-29v29h-30v29h-31v-29h-30v-29h-62v-29h-92v29h-31v29h-32v29h-31v29h-30v30h-31v29h-31v117h31v58h31v29h30v29h31v30h32v58h-30v29h-29v29h-29v29h-29v147z" glyph-name="ampersand" horiz-adv-x="582" unicode="&amp;"/><glyph d="M40 700h93v-29h-12v-58h-11v-58h-12v-44h-23v44h-12v58h-11v58h-12v29z" glyph-name="quotesingle" horiz-adv-x="173" unicode="'"/><glyph d="M93 796h116v-58h-58v-914h58v-58h-116v29h-29v29h-29v914h29v29h29v29z" glyph-name="parenleft" horiz-adv-x="209" unicode="("/><glyph d="M0 796h116v-29h29v-29h29v-914h-29v-29h-29v-29h-116v58h58v914h-58v58z" glyph-name="parenright" horiz-adv-x="209" unicode=")"/><glyph d="M177 700h46v-125h6v29h29v29h29v29h73v-29h-29v-29h-29v-29h-29v-29h-29v-30h29v-29h29v-29h29v-29h29v-29h-73v29h-29v29h-29v29h-6v-125h-46v125h-6v-29h-29v-29h-29v-29h-73v29h29v29h29v29h29v29h29v30h-29v29h-29v29h-29v29h-29v29h73v-29h29v-29h29v-29h6v125z" glyph-name="asterisk" horiz-adv-x="400" unicode="*"/><glyph d="M225 508h48v-184h184v-48h-184v-185h-48v185h-185v48h185v184z" glyph-name="plus" horiz-adv-x="497" unicode="+"/><glyph d="M59 118h87v-59h-29v-58h-29v-29h-29v-30h-30v-29h-29v88h29v58h30v59z" glyph-name="comma" horiz-adv-x="166" unicode=","/><glyph d="M40 276v48h353v-48h-353z" glyph-name="hyphen" horiz-adv-x="433" unicode="-"/><glyph d="M20 0v117h88v-117h-88z" glyph-name="period" horiz-adv-x="128" unicode="."/><glyph d="M379 700h116v-87h-29v-44h-29v-45h-29v-58h-29v-58h-29v-51h-29v-36h-29v-51h-29v-51h-29v-45h-30v-50h-30v-45h-29v-41h-29v-38h-116v58h29v49h29v38h29v54h29v42h29v48h29v54h30v50h30v44h29v58h29v59h29v53h29v55h29v38z" glyph-name="slash" horiz-adv-x="496" unicode="/"/><glyph d="M224 729h58v-29h44v-29h45v-29h58v-29h29v-438h-29v-29h-29v-29h-29v-29h-30v-30h-29v-29h-30v-29h-29v-29h-58v29h-43v29h-45v29h-58v30h-29v438h29v29h29v29h29v29h30v29h29v29h29v29h29v29zM137 584v-409h29v-29h58v-29h58v-29h30v29h29v409h-29v29h-59v29h-58v29h-29 v-29h-29z" glyph-name="zero" horiz-adv-x="478" unicode="0"/><glyph d="M214 729h29v-58h-29v-29h-29v-496h29v-29h29v29h29v-59h-29v-29h-29v-43h-29v-44h-29v29h-30v29h-58v29h-58v29h29v30h29v408h29v29h29v29h-87v-29h-29v88h29v29h29v29h146v29z" glyph-name="one" horiz-adv-x="283" unicode="1"/><glyph d="M288 730h32v-30h15v-29h31v-29h31v-29h30v-29h28v-29h18v-117h-30v-29h-31v-30h-31v-29h-31v-29h-30v-30h-32v-29h-31v-29h-31v-29h-30v-58h-33v-29h285v29h29v-88h-29v-29h-29v-29h-409v87h29v88h33v58h30v29h32v29h31v30h31v29h30v29h31v30h31v29h32v29h30v29h31v30 h-31v29h-30v29h-32v-29h-62v-29h-30v-30h-94v30h-30v29h-31v29h-31v58h31v-29h61v29h63v29h61v29h62v30z" glyph-name="two" horiz-adv-x="488" unicode="2"/><glyph d="M438 729h29v-145h-29v-29h-30v-30h-29v-29h-30v-58h32v-29h31v-29h31v-29h30v-60h31v-116h-31v-29h-30v-29h-31v-29h-31v-30h-32v-29h-30v-29h-31v-29h-31v29h-46v29h-46v29h-63v30h-61v-30h-31v88h31v29h31v29h124v-29h30v-29h62v-29h61v29h32v87h-32v58h-30v30h-31v30 h-31v29h-24v-29h-29v-29h-58v-29h-30v58h30v29h29v29h29v29h29v29h29v29h29v29h29v30h-262v-30h-29v88h29v29h29v29h29v29h322v29z" glyph-name="three" horiz-adv-x="520" unicode="3"/><glyph d="M515 729h29v-58h-29v-29h-29v-525h29v29h29v-73h-29v-44h-29v-58h-29v29h-29v29h-58v29h-59v29h29v30h30v175h-30v-29h-29v-30h-29v-29h-30v29h-58v30h-58v29h-59v29h-29v204h29v29h29v30h-87v-30h-29v88h29v29h29v29h146v29h29v-58h-29v-29h-29v-233h29v-29h58v-29h59 v-30h29v30h30v174h29v29h29v30h-88v-30h-29v88h29v29h30v29h145v29z" glyph-name="four" horiz-adv-x="555" unicode="4"/><glyph d="M433 729h29v-58h-29v-29h-29v-29h-29v-29h-30v-30h-175v-29h-29v-116h29v29h29v29h29v29h117v-29h30v-29h29v-29h29v-29h29v-205h-29v-29h-29v-29h-29v-30h-30v-29h-29v-29h-29v-29h-30v-29h-58v29h-29v29h-43v29h-45v29h-58v30h-29v29h29v29h29v29h117v-29h29v-29h29 v-29h59v-30h29v30h29v175h-29v29h-29v30h-30v29h-29v29h-29v-29h-29v-29h-88v58h-29v145h29v30h29v29h30v29h29v29h29v29h29v29h59v-29h146v29z" glyph-name="five" horiz-adv-x="467" unicode="5"/><glyph d="M224 729h58v-29h44v-30h44v-29h58v-29h30v-58h-30v-29h-29v-29h-29v29h-29v29h-59v29h-58v29h-58v-29h-30v-174h30v29h29v29h117v-29h58v-29h58v-30h30v-204h-30v-29h-29v-29h-29v-30h-29v-29h-29v-29h-30v-29h-29v-29h-58v29h-44v29h-44v29h-58v29h-29v438h29v29h29v29 h29v29h29v29h30v29h29v30h29v29zM136 350v-175h30v-29h58v-29h58v-30h30v30h29v175h-29v29h-59v29h-58v29h-29v-29h-30z" glyph-name="six" horiz-adv-x="473" unicode="6"/><glyph d="M467 729h29v-146h-29v-58h-30v-29h-29v-29h-29v-29h-29v-30h87v30h30v-59h-30v-29h-29v-30h-29v-29h-87v-116h-30v-29h-29v-30h88v30h29v-88h-29v-29h-29v-29h-117v-29h-30v87h30v233h-117v-29h-29v88h29v29h29v29h146v30h29v29h30v29h29v29h29v29h-321v-29h-29v58h29v29 h29v29h29v29h29v29h351v30z" glyph-name="seven" horiz-adv-x="501" unicode="7"/><glyph d="M214 728h58v-29h59v-29h29v-29h58v-29h29v-117h-29v-29h-29v-29h-29v-29h-29v-29h29v-29h58v-30h29v-145h-29v-30h-29v-29h-29v-29h-29v-29h-29v-29h-30v-29h-29v-29h-59v29h-43v29h-44v29h-58v29h-29v146h29v29h29v29h29v29h29v30h-29v29h-58v29h-29v116h29v29h29v30h29 v29h29v29h29v29h29v29h30v29zM126 583v-88h29v-29h59v-29h58v-29h30v29h29v87h-29v29h-59v30h-59v29h-29v-29h-29zM126 291v-116h29v-30h59v-29h58v-29h30v29h29v117h-29v29h-59v29h-59v29h-29v-29h-29z" glyph-name="eight" horiz-adv-x="458" unicode="8"/><glyph d="M219 729h59v-29h44v-30h44v-29h59v-29h29v-439h-29v-29h-30v-29h-29v-29h-29v-29h-29v-30h-30v-29h-30v-29h-58v29h-43v29h-44v30h-59v29h-29v58h29v29h29v29h30v-29h29v-29h58v-29h58v-29h60v29h29v176h-29v-29h-30v-30h-117v30h-58v29h-59v29h-29v204h29v30h29v29h30 v29h29v29h29v29h29v30h29v29zM132 583v-175h29v-29h58v-30h59v-29h30v29h29v175h-29v30h-60v29h-58v29h-29v-29h-29z" glyph-name="nine" horiz-adv-x="474" unicode="9"/><glyph d="M40 0v117h87v-117h-87zM40 438v117h87v-117h-87z" glyph-name="colon" horiz-adv-x="168" unicode=":"/><glyph d="M88 438v117h87v-117h-87zM88 118h87v-58h-29v-58h-29v-29h-29v-29h-29v-29h-29v87h29v58h29v58z" glyph-name="semicolon" horiz-adv-x="215" unicode=";"/><glyph d="M243 518h94v-29h-29v-29h-29v-29h-29v-29h-29v-29h-29v-29h-29v-29h-29v-29h29v-30h29v-29h29v-29h29v-29h29v-29h29v-29h29v-29h-94v29h-29v29h-29v29h-29v29h-29v29h-29v29h-29v30h-29v29h29v29h29v29h29v29h29v29h29v29h29v29h29v29z" glyph-name="less" horiz-adv-x="377" unicode="&lt;"/><glyph d="M40 341v48h418v-48h-418zM40 212v48h418v-48h-418z" glyph-name="equal" horiz-adv-x="498" unicode="="/><glyph d="M40 518h94v-29h29v-29h29v-29h29v-29h29v-29h29v-29h29v-29h29v-29h-29v-30h-29v-29h-29v-29h-29v-29h-29v-29h-29v-29h-29v-29h-94v29h29v29h29v29h29v29h29v29h29v29h29v30h29v29h-29v29h-29v29h-29v29h-29v29h-29v29h-29v29h-29v29z" glyph-name="greater" horiz-adv-x="377" unicode=">"/><glyph d="M226 700h93v-29h31v-29h30v-29h31v-29h31v-29h31v-118h-31v-29h-31v-29h-31v-29h-30v-29h-31v-29h-31v-29h-31v-29h-31v-29h-30v-29h-63v116h31v29h32v29h30v29h31v29h31v29h31v29h31v29h30v29h-30v60h-62v-29h-62v-31h-30v-29h-94v29h-30v31h-31v29h-31v58h31v-29h61v29 h62v29h62v29zM136 116h59v-29h29v-87h-59v29h-29v87z" glyph-name="question" horiz-adv-x="479" unicode="?"/><glyph d="M310 700h188v-37h38v-38h37v-37h38v-76h37v-75h38v-208h-38v-54h-37v-38h-38v-38h-25v-27h-26v-22h-43v22h-29v21h-22v21h-21v-21h-21v-21h-22v-22h-64v22h-21v21h-22v21h-21v193h21v21h22v21h21v22h21v21h22v21h21v22h22v21h42v-21h22v-22h42v-21h22v-21h21v-22h-21v-21 h-22v-199h22v28h26v47h33v212h-37v59h-38v75h-37v38h-151v-38h-37v-38h-38v-37h-37v-38h-38v-148h-37v-152h37v-38h38v-75h37v-37h75v-38h188v38h38v37h75v75h37v38h38v-113h-38v-37h-37v-75h-38v-38h-75v-37h-75v-38h-150v38h-75v37h-38v38h-37v37h-38v38h-37v75h-38v225 h38v150h37v38h38v37h37v38h38v38h37v37h38v38h37v37zM300 285v-106h21v-22h22v-21h21v-22h22v22h21v21h21v171h-21v21h-21v22h-22v-22h-21v-42h-22v-22h-21z" glyph-name="at" horiz-adv-x="696" unicode="@"/><glyph d="M282 700h321v-29h-30v-58h-29v-468h29v-29h30v29h29v-58h-29v-29h-30v-43h-29v-44h-30v29h-29v29h-58v29h-58v29h29v29h29v89h-203v-60h87v31h29v-60h-29v-29h-29v-29h-29v-29h-29v-29h-234v29h29v29h29v29h29v29h29v29h29v60h29v58h30v58h30v58h29v58h29v58h29v89h-87 v-30h-30v59h30v29h29v29h29v29zM282 379v-29h145v204h-58v-59h-29v-58h-29v-58h-29zM282 321v-29h145v29h-145z" glyph-name="A" unicode="A"/><glyph d="M247 728h31v-58h-31v-29h-31v-58h31v29h31v29h31v29h30v29h62v-29h31v-29h30v-29h32v-87h-32v-29h-30v-30h-31v-29h61v-29h32v-29h31v-29h31v-58h30v-88h-30v-59h-31v-29h-31v-29h-32v-29h-30v-29h-31v-29h-154v29h-61v29h-63v29h-92v-29h-31v58h31v29h31v30h30v350h31 v29h31v29h-123v-29h-31v58h31v29h31v29h30v29h155v29zM216 321v-117h31v-29h49v-30h43v-29h62v-29h31v58h30v88h-30v59h-31v29h-31v29h-31v29h-61v-29h-31v-29h-31zM216 525v-146h31v29h31v29h31v29h30v30h31v58h-31v58h-30v-29h-31v-29h-31v-29h-31z" glyph-name="B" horiz-adv-x="596" unicode="B"/><glyph d="M303 701h87v-29h58v-30h30v-29h58v-29h-29v-58h-29v-88h-30v-58h-29v88h-29v58h-29v29h-29v29h-60v-29h-29v-29h29v-29h31v-146h29v-29h-29v-29h-31v-31h-29v-29h-29v-29h-29v-29h58v-29h147v29h58v29h30v29h29v60h29v-118h-29v-29h-29v-59h-30v-29h-58v-29h-58v-29h-147 v29h-58v29h-30v29h-29v30h-29v58h-29v176h29v87h29v30h29v29h30v29h29v29h29v29h29v29h29v29h29v30h31v29zM127 438v-176h29v-29h29v264h-29v-59h-29z" glyph-name="C" horiz-adv-x="561" unicode="C"/><glyph d="M263 730h30v-58h-30v-29h-30v-59h30v30h30v29h29v29h29v29h29v-29h29v-29h30v-29h29v-59h29v-29h29v-58h29v-59h29v-176h-29v-29h-29v-29h-29v-29h-29v-29h-29v-29h-30v-30h-29v-29h-29v-29h-118v29h-58v29h-58v30h-88v-30h-29v59h29v29h29v29h30v29h29v322h29v29h29v29 h-146v-29h-29v59h29v29h29v29h30v29h175v29zM204 233v-29h29v-29h49v-29h40v-29h87v29h30v58h29v147h-29v58h-30v30h-29v58h-29v29h-29v58h-29v-29h-30v-29h-30v-293h-29z" glyph-name="D" horiz-adv-x="599" unicode="D"/><glyph d="M487 730h29v-58h-29v-29h-29v-29h-30v-30h-195v-179l19 -4l5 30l30 -7l6 29l143 -30l6 29l28 -6l-11 -58l-30 6l-6 -28l-28 6l-6 -29l-28 6l-6 -28l-122 24v-112h-29v-29h-29v-29h88v-29h59v-29h117v29h29v29h29v-87h-29v-30h-29v-29h-30v-29h-176v29h-58v29h-58v30h-88 v-30h-29v59h29v29h29v29h30v29h29v322h29v29h29v29h-146v-29h-29v59h29v29h29v29h30v29h399v29z" glyph-name="E" horiz-adv-x="526" unicode="E"/><glyph d="M484 727h29v-58h-29v-29h-29v-29h-29v-29h-194v-197h17v29h29v29l145 1v29h29v-58h-29v-29h-29v-30h-29v-29h-133v-181h29v-29h30v29h29v-58h-29v-29h-30v-43h-29v-44h-29v29h-29v29h-58v29h-58v29h29v29h29v407h29v29h29v29h-145v-29h-29v58h29v29h29v29h29v29h397v29z " glyph-name="F" horiz-adv-x="503" unicode="F"/><glyph d="M302 292h29v29h30v30h29v29h174v-29h-29v-30h-29v-175h29v-30h29v30h30v-59h-30v-29h-29v-29h-29v-29h-29v29h-29v29h-29v29h-29v-29h-29v-29h-30v-29h-146v29h-59v29h-29v29h-29v29h-29v59h-29v176h29v87h29v29h29v29h29v29h30v29h29v30h29v29h29v29h29v29h30v29h88v-29 h58v-29h29v-29h58v-29h-29v-59h-29v-64h-29v-38h-29v52h-29v50h-29v29h-30v30h-59v-30h-29v-29h29v-204h30v-29zM302 292h-30v-30h-29v-29h-29v-29h-29v-29h58v-29h147v58h29v29h29v29h-117v-29h-29v59zM126 438v-176h30v-29h29v263h-29v-58h-30z" glyph-name="G" horiz-adv-x="589" unicode="G"/><glyph d="M542 728h29v-58h-29v-29h-29v-495h29v-29h29v29h29v-58h-29v-29h-29v-44h-29v-43h-29v29h-29v29h-58v29h-58v29h29v29h29v152h-189v-123h29v-29h29v29h30v-58h-30v-29h-29v-44h-29v-43h-29v29h-29v29h-58v29h-58v29h29v29h29v408h29v29h29v29h-116v-29h-29v58h29v29h29 v29h29v29h145v29h29v-58h-29v-29h-29v-226h189v110h29v29h29v29h-116v-29h-30v58h30v29h29v29h29v29h145v29zM208 386v-29h189v29h-189z" glyph-name="H" horiz-adv-x="610" unicode="H"/><glyph d="M238 729h29v-58h-29v-29h-29v-496h29v-29h29v29h30v-59h-30v-29h-29v-44h-29v-43h-29v29h-29v29h-59v29h-58v29h29v30h29v408h29v29h30v30h-117v-30h-29v59h29v29h29v29h29v29h146v29z" glyph-name="I" horiz-adv-x="307" unicode="I"/><glyph d="M390 728h29v-58h-29v-29h-29v-496h29v-29h-29v-29h-30v-30h-29v-29h-30v-29h-29v-29h-58v29h-43v29h-45v29h-29v30h-58v29h29v58h29v76h29v41h30v-73h29v-73h29v-38h29v-50h29v467h29v30h30v29h-175v-29h-30v58h30v29h29v29h29v29h205v29z" glyph-name="J" horiz-adv-x="424" unicode="J"/><glyph d="M588 729h29v-58h-29v-30h-29v-29h-29v-29h-29v-29h-146v-29h-29v-29h29v-29h29v-29h30v-59h29v-58h29v-58h29v-59h29v-58h29v-30h29v30h29v-88h-29v-29h-29v-29h-116v58h-29v58h-30v59h-29v59h-29v58h-29v58h-29v29h-30v30h-29v-263h29v-30h29v30h30v-59h-30v-29h-29v-29 h-29v-29h-58v29h-59v29h-58v29h29v29h29v409h29v29h30v29h-117v-29h-29v58h29v29h29v30h29v29h146v29h29v-58h-29v-30h-29v-174h30v29h29v29h29v58h29v29h29v44h29v44h204v29z" glyph-name="K" horiz-adv-x="632" unicode="K"/><glyph d="M262 729h30v-58h-30v-30h-29v-408h-29v-29h-29v-29h87v-29h59v-30h117v30h29v29h29v-88h-29v-29h-29v-29h-29v-29h-176v29h-58v29h-59v29h-87v-29h-29v58h29v30h29v29h29v29h29v321h30v29h29v29h-146v-29h-29v58h29v29h29v30h29v29h175v29z" glyph-name="L" horiz-adv-x="491" unicode="L"/><glyph d="M564 700h146v-29h58v-29h58v-29h89v29h29v-58h-29v-30h-29v-29h-30v-29h-30v-321h-29v-29h-29v-29h147v29h29v-59h-29v-29h-29v-29h-30v-29h-175v-29h-29v58h29v29h29v409h29v29h29v29h-87v29h-58v30h-59v29h-29v-29h-29v-409h-29v-29h-29v-29h145v29h30v-59h-30v-29h-29 v-29h-29v-29h-175v-29h-29v58h29v29h30v467h-49v29h-39v30h-59v29h-29v-29h-29v-409h-29v-29h-30v-29h146v29h30v-59h-30v-29h-29v-29h-29v-29h-175v-29h-29v58h29v29h29v467h29v29h29v30h-87v-30h-29v59h29v29h29v29h29v29h59v-87h29v29h29v29h29v29h106v-29h41v-29h58v-29 h58v29h29v29h29v29z" glyph-name="M" horiz-adv-x="964" unicode="M"/><glyph d="M243 700h147v-29h58v-29h58v-29h87v29h30v-58h-30v-30h-29v-29h-29v-29h-29v-321h-29v-29h-29v-29h145v29h30v-59h-30v-29h-29v-29h-29v-29h-175v-29h-29v58h29v29h30v409h29v29h29v29h-88v29h-58v30h-59v29h-29v-29h-29v-409h-29v-29h-30v-29h146v29h30v-59h-30v-29h-29 v-29h-29v-29h-175v-29h-29v58h29v29h29v467h29v29h29v30h-87v-30h-29v59h29v29h29v29h29v29h59v-87h29v29h29v29h29v29z" glyph-name="N" horiz-adv-x="643" unicode="N"/><glyph d="M195 700h117v-29h59v-29h58v-29h29v-438h-29v-29h-29v-30h-29v-29h-30v-29h-29v-29h-30v-29h-116v29h-59v29h-58v29h-29v438h29v29h29v30h29v29h29v29h30v29h29v29zM136 584v-409h30v-29h58v-30h58v-29h30v29h29v409h-29v29h-59v30h-58v29h-29v-29h-30z" glyph-name="O" horiz-adv-x="478" unicode="O"/><glyph d="M368 700h63v-29h31v-29h30v-29h31v-29h31v-59h31v-116h-31v-29h-31v-29h-31v-30h-30v-29h-31v-29h-31v-29h-93v29h-62v29h-31v-146h29v-29h29v29h30v-59h-30v-29h-29v-43h-29v-44h-29v29h-29v29h-59v29h-58v29h29v30h29v204h-50v-29h-31v59h31v29h31v29h19v116h29v29h30 v30h-117v-30h-29v59h29v29h29v29h29v29h175v-29h-29v-29h-29v-58h31v29h31v29h62v29h30v29zM214 525v-87h62v-29h31v-29h61v-29h63v29h31v87h-31v58h-31v29h-32v30h-61v-30h-62v-29h-31z" glyph-name="P" horiz-adv-x="595" unicode="P"/><glyph d="M194 700h117v-29h58v-29h58v-30h29v-435h-29v-29h-29v-29h-29v-29h-29v-30h-29v-29h-30v-29h-29v-29h59v-29h58v-29h87v29h29v-87h-29v-29h-29v-29h-116v29h-59v29h-29v29h-58v29h-58v29h29v29h29v58h-58v29h-58v30h-29v435h29v29h29v29h29v29h29v30h29v29h29v29z M136 583v-406h29v-29h58v-29h58v-29h30v29h29v406h-29v29h-59v29h-58v29h-29v-29h-29z" glyph-name="Q" horiz-adv-x="495" unicode="Q"/><glyph d="M243 729h29v-58h-29v-29h-29v-58h31v29h31v29h62v29h31v29h62v-29h31v-29h30v-29h31v-29h31v-59h31v-116h-31v-29h-31v-29h-31v-29h-30v-30h-31v-29h31v-39h30v-34h31v-44h52v-29h41v29h31v-88h-31v-29h-31v-29h-93v29h-30v29h-31v30h-31v32h-31v43h-31v41h-31v29h-31v30 h-31v29h-31v-146h29v-29h29v29h30v-58h-30v-30h-29v-43h-29v-44h-29v29h-29v29h-59v29h-58v30h29v29h29v205h-54v-30h-31v59h31v29h31v29h23v116h30v30h29v29h-117v-29h-29v58h29v29h29v29h29v29h146v29zM214 525v-87h62v-29h31v-29h62v-29h62v29h31v87h-31v58h-31v30h-31 v29h-62v-29h-62v-30h-31z" glyph-name="R" unicode="R"/><glyph d="M231 700h93v-29h62v-29h62v-29h61v29h31v-58h-31v-30h-31v-29h-30v-29h-94v29h-30v29h-62v30h-61v-59h-31v-29h31v-58h30v-29h31v-29h155v-29h31v-30h30v-59h31v-87h-31v-29h-30v-30h-31v-29h-31v-29h-32v-29h-30v-29h-93v29h-61v29h-63v29h-61v-29h-31v58h31v30h31v29 h30v29h94v-29h30v-29h62v-30h61v59h32v29h-32v58h-30v30h-31v29h-154v30h-32v29h-30v58h-31v87h31v29h30v30h32v29h31v29h31v29h30v29z" glyph-name="S" horiz-adv-x="561" unicode="S"/><glyph d="M557 729h29v-58h-29v-30h-29v-29h-29v-29h-135v-291h29v-30h-29v-29h-29v-29h-29v-29h-29v-29h146v29h58v29h29v29h29v59h29v-117h-29v-29h-29v-59h-29v-29h-58v-29h-59v-29h-145v29h-59v29h-30v29h-29v29h-29v88h-29v146h29v88h29v29h29v29h30v29h30v29h29v29h-175v-29 h-29v58h29v29h29v30h29v29h455v29zM160 438v-176h30v-29h29v-58h29v350h-29v-29h-29v-58h-30zM248 525h29v29h29v29h-58v-58z" glyph-name="T" horiz-adv-x="581" unicode="T"/><glyph d="M584 729h29v-58h-29v-29h-29v-496h29v-29h29v29h29v-58h-29v-30h-29v-43h-29v-44h-30v29h-29v29h-29v29h-29v30h-29v-30h-29v-29h-29v-29h-118v29h-58v29h-58v30h-88v-30h-29v59h29v29h29v29h29v29h30v322h29v29h29v29h-146v-29h-29v58h29v29h29v29h29v29h175v29h30v-58 h-30v-29h-29v-409h-29v-29h-29v-29h87v-29h59v-29h88v29h29v380h29v29h29v29h-116v-29h-29v58h29v29h29v29h29v29h146v29z" glyph-name="U" unicode="U"/><glyph d="M583 729h29v-59h-29v-29h-29v-466h-29v-29h-29v-30h-29v-29h-29v-29h-30v-29h-29v-29h-146v29h-58v29h-59v29h-87v-29h-29v58h29v30h29v29h29v29h29v321h30v29h29v29h-146v-29h-29v58h29v29h29v29h29v30h175v29h30v-59h-30v-29h-29v-408h-29v-29h-29v-29h87v-29h59v-30 h58v-29h29v29h30v409h29v29h29v29h-146v-29h-29v58h29v29h29v29h29v30h175v29z" glyph-name="V" horiz-adv-x="612" unicode="V"/><glyph d="M904 729h29v-59h-29v-29h-29v-466h-29v-29h-30v-30h-29v-29h-29v-29h-29v-29h-30v-29h-105v29h-40v29h-58v29h-58v-29h-30v-29h-29v-29h-146v29h-58v29h-59v29h-87v-29h-29v58h29v30h29v29h29v29h29v321h30v29h29v29h-146v-29h-29v58h29v29h29v29h29v29h175v30h30v-59 h-30v-29h-29v-408h-29v-29h-29v-29h87v-29h59v-30h58v-29h29v29h30v409h29v29h29v29h-146v-29h-29v58h29v29h29v29h29v29h175v30h29v-59h-29v-29h-29v-466h48v-29h39v-30h58v-29h30v29h29v409h29v29h29v29h-146v-29h-29v58h29v29h29v29h30v29h175v30z" glyph-name="W" horiz-adv-x="933" unicode="W"/><glyph d="M472 700h87v-29h30v-117h-30v-29h-29v29h-29v30h-29v-30h-29v-29h-29v-29h-29v-58h-29v-58h29v-59h29v-59h29v-58h29v-29h29v-29h29v-30h29v30h30v-88h-30v-29h-29v-29h-87v29h-29v29h-29v29h-29v59h-30v29h-29v58h-30v-29h-29v-58h-29v-59h-29v-29h-29v-29h-30v-29h-87 v29h-29v117h29v29h29v-29h29v-30h29v30h30v29h29v29h29v58h29v59h-29v59h-29v58h-29v58h-30v58h-29v30h-58v-30h-29v59h29v29h29v29h29v29h88v-29h29v-29h29v-58h29v-59h30v-87h29v58h30v58h29v59h29v29h29v29h29v29z" glyph-name="X" horiz-adv-x="594" unicode="X"/><glyph d="M594 730h30v-59h-30v-29h-29v-454h-29v-29h-29v-29h-29v-29h-29v-29h-30v-29h-29v-30h-29v-29h-29v-29h-118v29h-58v29h-58v30h-59v-30h-29v59h29v29h29v29h30v29h29v29h58v-29h29v-29h48v-29h41v-29h87v29h29v58h30v103h-30v-29h-29v-30h-147v30h-58v29h-58v29h-88v29 h29v29h30v59h29v117h29v29h29v30h-146v-30h-29v59h29v29h29v29h30v29h175v30h30v-59h-30v-29h-30v-205h-29v-29h-29v-30h88v-29h59v-29h58v-29h29v29h30v205h29v29h29v30h-146v-30h-29v59h29v29h29v29h29v29h175v30z" glyph-name="Y" horiz-adv-x="624" unicode="Y"/><glyph d="M477 729h29v-116h-29v-30h-29v-29h-29v-58h-29v-29h-30v-29h-29v-29h117v29h29v-58h-29v-30h-29v-29h-29v-29h-147v-30h-29v-29h-29v-29h-29v-29h-30v-29h351v29h29v-88h-29v-29h-29v-29h-29v-29h-380v29h-29v117h29v29h29v29h29v29h29v29h30v30h-88v-30h-29v88h29v30h29 v29h146v29h29v29h30v29h29v29h29v29h-321v-29h-29v58h29v30h29v29h29v29h29v29h351v29z" glyph-name="Z" horiz-adv-x="516" unicode="Z"/><glyph d="M40 796h174v-58h-58v-914h58v-58h-174v1030z" glyph-name="bracketleft" horiz-adv-x="214" unicode="["/><glyph d="M0 700h116v-38h29v-55h29v-53h31v-59h29v-58h29v-44h29v-50h29v-54h29v-48h29v-42h29v-54h29v-38h29v-49h29v-58h-116v38h-29v41h-29v45h-29v50h-29v45h-29v51h-29v51h-31v36h-29v51h-29v58h-29v58h-29v45h-29v44h-29v87z" glyph-name="backslash" horiz-adv-x="496" unicode="\"/><glyph d="M0 797h174v-1030h-174v58h58v914h-58v58z" glyph-name="bracketright" horiz-adv-x="214" unicode="]"/><glyph d="M185 700h29v-29h29v-29h30v-29h29v-29h29v-29h29v-47h-58v29h-29v29h-30v29h-29v29h-29v-29h-29v-29h-29v-29h-29v-29h-58v47h29v29h29v29h29v29h29v29h29v29z" glyph-name="asciicircum" horiz-adv-x="400" unicode="^"/><glyph d="M40 -150v48h572v-48h-572z" glyph-name="underscore" horiz-adv-x="653" unicode="_"/><glyph d="M30 700h102v-29h20v-29h14v-29h17v-27h21v-64h-29v15h-29v29h-29v29h-29v29h-29v29h-29v47z" glyph-name="grave" horiz-adv-x="234" unicode="`"/><glyph d="M229 555h58v-29h30v-29h59v-29h29v-30h29v-29h-29v-29h-29v-263h29v29h29v-117h-29v-29h-58v29h-30v29h-30v29h-29v-29h-29v-29h-29v-29h-88v29h-29v29h-29v29h-29v264h29v29h29v29h29v29h30v30h29v29h29v29h29v29zM112 351v-176h30v-29h29v-29h29v-30h29v30h29v29h29 v234h-29v29h-29v29h-29v-29h-29v-29h-29v-29h-30z" glyph-name="a" horiz-adv-x="444" unicode="a"/><glyph d="M68 794h58v-30h29v-29h30v-29h29v-29h-59v-210h30v29h29v29h29v29h88v-29h29v-29h29v-29h29v-263h-29v-29h-29v-29h-29v-30h-29v-43h-30v-29h-29v-32h-29v-41h-29v29h-30v29h-40v29h-47v29h-29v29h-29v30h29v29h29v502h-29v-29h-29v87h29v29h29v30zM155 408v-233h30v-29 h29v-39h29v39h29v29h30v44h29v160h-29v29h-30v29h-29v30h-29v-30h-29v-29h-30z" glyph-name="b" horiz-adv-x="443" unicode="b"/><glyph d="M176 555h87v-29h29v-29h31v-59h29v-87h-29v-29h-31v-29h-29v87h-29v58h-29v30h-29v-30h-29v-29h-30v-234h30v-58h29v-30h29v-29h58v29h29v30h31v29h29v-59h-29v-29h-31v-29h-29v-29h-127v29h-40v29h-37v59h-29v292h29v29h29v30h29v29h30v29h29v29z" glyph-name="c" horiz-adv-x="372" unicode="c"/><glyph d="M287 794h59v-29h29v-30h29v-29h29v-29h-58v-210h29v-30h29v-29h-29v-29h-29v-263h29v30h29v-117h-29v-29h-58v29h-29v29h-30v29h-29v-29h-29v-29h-29v-29h-30v-29h-29v29h-29v29h-29v29h-29v29h-29v263h29v29h29v29h29v29h29v30h29v29h30v29h29v29h58v123h-29v-29h-29v87 h29v30h29v29zM112 350v-175h29v-29h29v-30h30v-29h29v29h29v30h29v262h-29v29h-29v23h-29v-38h-30v-29h-29v-43h-29z" glyph-name="d" horiz-adv-x="448" unicode="d"/><glyph d="M176 555h87v-29h29v-29h31v-59h29v-87h-29v-29h-47v-29h-50v-31h-50v-29h-29v-29h-30v-29h30v-58h29v-30h29v-29h58v29h29v30h31v29h29v-59h-29v-29h-31v-29h-29v-29h-127v29h-40v29h-37v59h-29v292h29v29h29v30h29v29h30v29h29v29zM117 409v-147h30v31h29v29h29v29h29 v87h-29v30h-29v-30h-29v-29h-30z" glyph-name="e" horiz-adv-x="372" unicode="e"/><glyph d="M213 791h58v-29h30v-29h29v-58h29v-29h-29v-29h-29v-29h-30v58h-29v58h-29v-29h-29v-29h-29v-116h87v-29h-58v-29h-29v-385h29v-58h29v-29h-116v29h-29v29h-29v29h-29v29h29v29h29v356h-58v29h29v29h29v87h29v29h29v29h29v29h29v29h29v29z" glyph-name="f" horiz-adv-x="355" unicode="f"/><glyph d="M258 554h59v-29h29v-29h29v-29h30v-29h29v-29h-29v-30h-30v-203h30v-88h29v-59h29v-117h-29v-29h-29v-29h-59v-29h-29v-29h-117v29h-59v29h-58v29h-58v29h29v30h29v29h88v-29h29v-30h29v-29h29v-29h59v29h29v29h29v59h-29v58h-29v59h-30v-30h-29v-29h-29v-29h-88v29h-29 v29h-29v30h-29v262h29v29h29v30h29v29h30v29h29v29h29v29h29v29zM141 350v-174h30v-59h29v-59h29v30h29v29h29v292h-29v29h-29v-29h-29v-30h-29v-29h-30z" glyph-name="g" horiz-adv-x="473" unicode="g"/><glyph d="M68 796h59v-29h29v-29h29v-29h29v-30h-58v-211h29v29h29v29h29v30h60v-30h29v-29h29v-29h29v-29h59v-29h-29v-29h-30v-264h30v29h29v-87h-29v-44h-30v-44h-29v29h-44v29h-44v30h-30v29h30v29h30v264h-30v29h-30v29h-58v-29h-29v-322h29v-59h29v-29h-116v29h-30v30h-29v29 h-29v29h29v29h29v533h-29v-29h-29v88h29v29h29v29z" glyph-name="h" horiz-adv-x="474" unicode="h"/><glyph d="M63 555h58v-29h30v-29h29v-29h29v-29h-58v-321h29v29h29v-88h-29v-43h-29v-44h-30v29h-43v29h-44v29h-29v29h29v30h29v321h-29v-29h-29v87h29v29h29v29zM63 795h29v-29h29v-29h30v-29h29v-58h29v-29h-117v29h-29v29h-29v29h-29v29h29v29h29v29z" glyph-name="i" horiz-adv-x="219" unicode="i"/><glyph d="M92 555h58v-29h29v-29h29v-29h29v-29h-58v-523h29v-29h-58v-29h-29v-29h-29v-29h-87v29h29v29h29v29h29v552h-29v-29h-29v87h29v29h29v29zM92 795h29v-29h29v-29h29v-29h29v-59h29v-29h-116v29h-29v30h-29v29h-29v29h29v29h29v29z" glyph-name="j" horiz-adv-x="247" unicode="j"/><glyph d="M68 797h59v-30h29v-29h29v-29h29v-29h-58v-212h29v30h29v29h30v29h88v-29h29v-29h30v-59h-30v-29h-29v-29h-29v-29h29v-30h29v-29h30v-205h29v-59h29v-29h-117v29h-29v30h-30v29h-29v29h29v29h30v118h-30v29h-29v29h-30v-29h-29v-29h-29v-147h29v29h29v-87h-29v-44h-29 v-44h-29v29h-43v29h-45v30h-29v29h29v29h29v563h-29v-29h-29v87h29v29h29v30zM156 322h29v30h29v29h30v29h29v29h-29v29h-30v-29h-29v-29h-29v-88z" glyph-name="k" horiz-adv-x="465" unicode="k"/><glyph d="M68 791h58v-29h29v-29h29v-29h29v-29h-58v-559h29v29h29v-87h-29v-43h-29v-44h-29v29h-43v29h-44v29h-29v29h29v29h29v559h-29v-29h-29v87h29v29h29v29z" glyph-name="l" horiz-adv-x="228" unicode="l"/><glyph d="M482 555h59v-29h29v-29h29v-29h29v-30h58v-29h-29v-29h-29v-263h29v29h29v-88h-29v-43h-29v-44h-29v29h-44v29h-43v29h-30v30h30v29h29v263h-29v29h-30v29h-58v-29h-29v-321h29v-59h29v-29h-116v29h-29v29h-31v30h-29v29h29v29h31v236h-31v30h-29v26h-58v-29h-29v-321h29 v-59h29v-29h-117v29h-29v29h-29v30h-29v29h29v29h29v292h-29v-29h-29v88h29v29h29v29h59v-29h29v-58h29v29h29v29h29v29h60v-29h29v-29h29v-29h58v29h29v29h29v29z" glyph-name="m" horiz-adv-x="712" unicode="m"/><glyph d="M248 555h60v-29h29v-29h29v-29h29v-30h58v-29h-29v-29h-29v-263h29v29h29v-88h-29v-43h-29v-44h-29v29h-44v29h-45v29h-29v30h29v29h31v263h-31v29h-29v29h-58v-29h-29v-292h29v29h29v-88h-29v-43h-29v-44h-29v29h-44v29h-44v29h-29v30h29v29h29v321h-29v-29h-29v88h29 v29h29v29h59v-29h29v-58h29v29h29v29h29v29z" glyph-name="n" horiz-adv-x="479" unicode="n"/><glyph d="M200 555h58v-29h29v-29h31v-29h29v-293h-29v-29h-31v-29h-29v-30h-29v-29h-29v-29h-29v-29h-59v29h-29v29h-29v29h-29v293h29v29h29v29h29v30h30v29h29v29h29v29zM112 409v-234h30v-29h29v-29h58v29h29v234h-29v29h-29v29h-58v-29h-30z" glyph-name="o" horiz-adv-x="372" unicode="o"/><glyph d="M253 555h88v-29h29v-30h29v-29h29v-262h-29v-29h-29v-29h-29v-29h-29v-29h-30v-30h-29v-29h-29v-29h-58v-117h29v-58h29v-29h-117v29h-29v29h-29v29h-29v29h29v30h29v146h-29v29h-29v29h29v29h29v262h-29v-29h-29v117h29v29h58v-29h29v-30h30v-29h29v29h29v30h29v29z M166 409v-233h29v-29h29v-29h29v29h29v29h30v59h29v145h-29v29h-30v29h-29v29h-29v-29h-29v-29h-29z" glyph-name="p" horiz-adv-x="453" unicode="p"/><glyph d="M229 555h58v-29h31v-29h29v-29h29v-29h58v-30h-29v-29h-29v-497h29v-58h29v-29h-116v29h-31v29h-29v29h-29v30h29v29h29v147h-29v-31h-29v-29h-29v-29h-88v29h-29v29h-29v31h-29v262h29v29h29v29h29v30h30v29h29v29h29v29h29v29zM112 322v-146h30v-29h29v-29h29v-29h29 v29h29v29h29v233h-29v29h-29v30h-29v-30h-29v-29h-29v-58h-30z" glyph-name="q" horiz-adv-x="445" unicode="q"/><glyph d="M243 583h29v-29h30v-29h29v-30h58v-29h-29v-29h-29v-58h-29v-29h-30v58h-29v29h-29v29h-29v-29h-30v-350h30v-58h29v-29h-117v29h-29v29h-29v29h-29v29h29v29h29v292h-29v-29h-29v87h29v30h29v29h58v-29h29v-30h30v30h29v29h29v29z" glyph-name="r" horiz-adv-x="385" unicode="r"/><glyph d="M165 554h92v-29h31v-29h31v-29h30v29h31v-87h-31v-29h-92v29h-31v29h-30v29h-31v-29h-32v-58h32v-30h31v-29h61v-29h31v-30h31v-29h30v-29h31v-88h-31v-29h-30v-29h-31v-29h-31v-29h-124v29h-31v29h-30v29h-31v-29h-31v58h31v30h31v29h93v-29h31v-59h61v29h31v59h-31v29 h-31v29h-61v29h-32v30h-31v29h-30v29h-31v88h31v29h30v29h31v29h32v29z" glyph-name="s" horiz-adv-x="396" unicode="s"/><glyph d="M137 672h29v-116h87v-59h-29v-29h-58v-351h58v29h29v-87h-29v-44h-29v-44h-29v29h-29v29h-59v30h-58v58h29v29h29v322h-58v59h29v29h29v29h30v58h29v29z" glyph-name="t" horiz-adv-x="274" unicode="t"/><glyph d="M302 555h59v-29h58v-30h29v-29h-29v-29h-29v-321h29v29h29v-88h-29v-43h-29v-44h-29v29h-30v29h-29v59h-30v-30h-29v-29h-29v-29h-58v29h-29v29h-30v30h-29v29h-58v29h29v29h29v263h-29v-29h-29v87h29v30h29v29h59v-29h58v-30h29v-29h-29v-29h-29v-263h29v-29h29v-29h58 v29h30v292h-30v-29h-29v87h29v30h30v29z" glyph-name="u" horiz-adv-x="458" unicode="u"/><glyph d="M303 555h58v-29h58v-29h29v-29h-29v-30h-29v-277h-29v-29h-29v-29h-29v-29h-31v-30h-29v-35h-29v-38h-29v29h-29v29h-29v29h-30v30h-29v29h-58v29h29v29h29v263h-29v-29h-29v88h29v29h29v29h59v-29h58v-29h29v-29h-29v-30h-29v-263h29v-29h29v-47h29v18h29v29h31v292h-31 v-29h-29v88h29v29h31v29z" glyph-name="v" horiz-adv-x="454" unicode="v"/><glyph d="M536 555h58v-29h59v-29h29v-29h-29v-30h-30v-263h-29v-29h-29v-29h-29v-30h-29v-29h-29v-29h-30v-29h-58v29h-29v29h-29v29h-60v-29h-29v-29h-29v-29h-58v29h-29v29h-30v29h-29v30h-58v29h29v29h29v263h-29v-29h-29v88h29v29h29v29h59v-29h58v-29h29v-29h-29v-30h-29 v-263h29v-29h29v-29h58v29h31v292h-31v-29h-29v88h29v29h31v29h58v-29h58v-29h29v-29h-29v-30h-29v-263h29v-29h29v-29h59v29h29v292h-29v-29h-29v88h29v29h29v29z" glyph-name="w" horiz-adv-x="687" unicode="w"/><glyph d="M361 555h58v-29h29v-119h-29v-29h-29v29h-29v30h-29v-30h-29v-29h-31v-59h31v-59h29v-54h29v-58h29v-30h29v30h29v-89h-29v-30h-29v-29h-58v29h-29v30h-31v59h-29v59h-29v-29h-29v-60h-29v-29h-29v-30h-30v-29h-58v29h-29v119h29v29h29v-29h29v-30h30v30h29v29h29v29h29 v24h-29v60h-29v59h-29v58h-30v30h-29v30h-29v-30h-29v59h29v30h29v29h88v-29h29v-30h29v-59h29v-30h29v60h31v29h29v30h29v29z" glyph-name="x" horiz-adv-x="459" unicode="x"/><glyph d="M302 555h59v-30h58v-29h29v-29h-29v-29h-29v-262h29v-88h29v-59h29v-116h-29v-30h-29v-29h-58v-29h-30v-29h-117v29h-58v29h-59v29h-58v30h29v29h29v29h88v-29h29v-29h29v-30h29v-29h59v29h30v30h29v58h-29v58h-30v88h-29v-29h-30v-30h-29v-29h-29v-29h-58v29h-29v29h-30 v30h-29v29h-58v30h29v29h29v262h-29v-29h-29v87h29v29h29v30h59v-30h58v-29h29v-29h-29v-29h-29v-262h29v-29h29v-30h58v30h30v291h-30v-29h-29v87h29v29h30v30z" glyph-name="y" horiz-adv-x="483" unicode="y"/><glyph d="M79 555h325v-59h-30v-59h-29v-30h-30v-30h-30v-29h-30v-23h119v29h30v-59h-30v-30h-29v-30h-148v-29h-30v-29h-29v-30h-30v-29h266v29h30v-88h-30v-30h-29v-29h-325v118h29v29h30v30h29v29h30v29h-89v-29h-29v59h29v30h30v30h118v23h29v29h29v30h30v30h-236v-30h-29v89 h29v30h30v29z" glyph-name="z" horiz-adv-x="424" unicode="z"/><glyph d="M145 796h117v-58h-59v-395h-58v-29h-29v-42h29v-29h58v-419h59v-58h-117v29h-29v29h-29v390h-29v29h-29v29h-29v42h29v29h29v29h29v366h29v29h29v29z" glyph-name="braceleft" horiz-adv-x="257" unicode="{"/><glyph d="M40 796h117l1 -1140h-118v1140z" glyph-name="bar" horiz-adv-x="198" unicode="|"/><glyph d="M-5 796h116v-29h29v-29h29v-366h30v-29h29v-29h29v-42h-29v-29h-29v-29h-30v-390h-29v-29h-29v-29h-116v58h58v419h58v29h29v42h-29v29h-58v395h-58v58z" glyph-name="braceright" horiz-adv-x="257" unicode="}"/><glyph d="M237 373h169v-24h28v-25h28v-73h-28v24h-28v25h-57v-25h-56v-24h-28v-25h-169v25h-28v24h-28v74h28v-25h28v-24h57v24h28v25h56v24z" glyph-name="asciitilde" horiz-adv-x="502" unicode="~"/><glyph d="M190 700h32v-89h42v-29h29v-29h29v-60h29v-87h-29v-29h-29v-29h-29v87h-30v58h-12v-349h42v29h29v30h29v29h29v-59h-29v-29h-29v-30h-29v-29h-42v-85h-32v85h-44v29h-58v30h-29v59h-29v261h29v29h29v30h29v30h29v29h29v29h15v89zM117 464v-203h29v-58h29v-30h15v350h-15 v-30h-29v-29h-29z" glyph-name="cent" horiz-adv-x="371" unicode="¢"/><glyph d="M196 700h92v-30h62v-29h61v-29h62v29h31v-58h-31v-29h-31v-29h-31v-30h-92v30h-31v29h-62v29h-62v-58h-31v-47h31v-41h51v-29h42v-29h74v-29h-29v-29h-29v-10h130v-31h-159v-17h159v-31h-219v-28h-29v-29h-29v-30h350v30h29v-88h-29v-29h-29v-29h-29v-29h-379v-29h-29 v145h29v59h29v29h29v28h-87v31h145v17h-145v31h174v10h-51v29h-61v29h-31v29h-31v117h31v29h31v29h30v29h31v29h31v29h32v30z" glyph-name="sterling" horiz-adv-x="511" unicode="£"/><glyph d="M583 729h30v-58h-30v-29h-30v-263h-29v-29h-29v-29h-29v-29h-29v-29h-29v-15h87v-31h-116v-15h116v-31h-116v-26h29v-29h29v29h29v-58h-29v-29h-29v-43h-29v-44h-29v29h-44v29h-43v29h-58v29h29v29h29v55h-110v31h110v15h-110v31h81v15h-60v29h-87v29h-29v58h29v29h29 v116h29v30h29v30h-145v-30h-29v59h29v29h29v29h29v29h176v29h29v-58h-29v-29h-29v-205h-29v-29h-31v-29h89v-29h58v-29h58v-29h29v29h29v203h29v30h29v30h-145v-30h-29v59h29v29h29v29h29v29h175v29z" glyph-name="yen" horiz-adv-x="613" unicode="¥"/><glyph d="M30 613v87h87v-87h-87zM240 613v87h88v-87h-88z" glyph-name="dieresis" horiz-adv-x="358" unicode="¨"/><glyph d="M244 518h93v-29h-29v-29h-29v-29h-29v-29h-29v-29h-29v-29h-29v-29h-29v-29h29v-30h29v-29h29v-29h29v-29h29v-29h29v-29h29v-29h-93v29h-30v29h-29v29h-29v29h-29v29h-29v29h-29v30h-29v29h29v29h29v29h29v29h29v29h29v29h29v29h30v29zM403 518h94v-29h-29v-29h-29v-29 h-29v-29h-29v-29h-29v-29h-29v-29h-29v-29h29v-30h29v-29h29v-29h29v-29h29v-29h29v-29h29v-29h-94v29h-29v29h-29v29h-29v29h-29v29h-29v29h-29v30h-29v29h29v29h29v29h29v29h29v29h29v29h29v29h29v29z" glyph-name="guillemotleft" horiz-adv-x="537" unicode="«"/><glyph d="M103 700h102v-47h-29v-29h-29v-29h-29v-29h-30v-29h-29v-15h-29v64h22v27h16v29h15v29h20v29z" glyph-name="acute" horiz-adv-x="235" unicode="´"/><glyph d="M106 7v-64h13v13h12v13h64v-13h13v-13h12v-12h13v-77h-13v-12h-12v-13h-13v-13h-13v-13h-12v-12h-13v-13h-51v13h-13v12h-25v13h-26v13h-12v13h12v12h13v13h51v-13h13v-12h12v-13h26v-13h13v13h12v76h-12v13h-13v13h-38v-13h-38v25h-13v64h38z" glyph-name="cedilla" horiz-adv-x="263" unicode="¸"/><glyph d="M200 518h93v-29h30v-29h29v-29h29v-29h29v-29h29v-29h29v-29h29v-29h-29v-30h-29v-29h-29v-29h-29v-29h-29v-29h-29v-29h-30v-29h-93v29h29v29h29v29h29v29h29v29h29v29h29v30h29v29h-29v29h-29v29h-29v29h-29v29h-29v29h-29v29h-29v29zM40 518h94v-29h29v-29h29v-29h29 v-29h29v-29h29v-29h29v-29h29v-29h-29v-30h-29v-29h-29v-29h-29v-29h-29v-29h-29v-29h-29v-29h-94v29h29v29h29v29h29v29h29v29h29v29h29v30h29v29h-29v29h-29v29h-29v29h-29v29h-29v29h-29v29h-29v29z" glyph-name="guillemotright" horiz-adv-x="537" unicode="»"/><glyph d="M282 700h321v-29h-30v-58h-29v-468h29v-29h30v29h29v-58h-29v-29h-30v-43h-29v-44h-30v29h-29v29h-58v29h-58v29h29v29h29v89h-203v-60h87v31h29v-60h-29v-29h-29v-29h-29v-29h-29v-29h-234v29h29v29h29v29h29v29h29v29h29v60h29v58h30v58h30v58h29v58h29v58h29v89h-87 v-30h-30v59h30v29h29v29h29v29zM282 379v-29h145v204h-58v-59h-29v-58h-29v-58h-29zM282 321v-29h145v29h-145zM273 930h102v-29h20v-29h14v-29h17v-27h21v-64h-29v15h-29v29h-29v29h-29v29h-29v29h-29v47z" glyph-name="Agrave" unicode="À"/><glyph d="M282 700h321v-29h-30v-58h-29v-468h29v-29h30v29h29v-58h-29v-29h-30v-43h-29v-44h-30v29h-29v29h-58v29h-58v29h29v29h29v89h-203v-60h87v31h29v-60h-29v-29h-29v-29h-29v-29h-29v-29h-234v29h29v29h29v29h29v29h29v29h29v60h29v58h30v58h30v58h29v58h29v58h29v89h-87 v-30h-30v59h30v29h29v29h29v29zM282 379v-29h145v204h-58v-59h-29v-58h-29v-58h-29zM282 321v-29h145v29h-145zM492 930h102v-47h-29v-29h-29v-29h-29v-29h-30v-29h-29v-15h-29v64h22v27h16v29h15v29h20v29z" glyph-name="Aacute" unicode="Á"/><glyph d="M282 700h321v-29h-30v-58h-29v-468h29v-29h30v29h29v-58h-29v-29h-30v-43h-29v-44h-30v29h-29v29h-58v29h-58v29h29v29h29v89h-203v-60h87v31h29v-60h-29v-29h-29v-29h-29v-29h-29v-29h-234v29h29v29h29v29h29v29h29v29h29v60h29v58h30v58h30v58h29v58h29v58h29v89h-87 v-30h-30v59h30v29h29v29h29v29zM282 379v-29h145v204h-58v-59h-29v-58h-29v-58h-29zM282 321v-29h145v29h-145zM420 930h29v-17h29v-29h29v-29h29v-29h29v-29h29v-47h-72v29h-29v29h-29v29h-59v-29h-29v-29h-29v-29h-72v47h29v29h29v29h29v29h29v29h29v17z" glyph-name="Acircumflex" unicode="Â"/><glyph d="M282 700h321v-29h-30v-58h-29v-468h29v-29h30v29h29v-58h-29v-29h-30v-43h-29v-44h-30v29h-29v29h-58v29h-58v29h29v29h29v89h-203v-60h87v31h29v-60h-29v-29h-29v-29h-29v-29h-29v-29h-234v29h29v29h29v29h29v29h29v29h29v60h29v58h30v58h30v58h29v58h29v58h29v89h-87 v-30h-30v59h30v29h29v29h29v29zM282 379v-29h145v204h-58v-59h-29v-58h-29v-58h-29zM282 321v-29h145v29h-145zM425 890h121v-20h20v-20h20v-61h-20v20h-20v20h-40v-20h-41v-20h-20v-20h-121v20h-20v20h-20v61h20v-20h20v-21h41v21h20v20h40v20z" glyph-name="Atilde" unicode="Ã"/><glyph d="M282 700h321v-29h-30v-58h-29v-468h29v-29h30v29h29v-58h-29v-29h-30v-43h-29v-44h-30v29h-29v29h-58v29h-58v29h29v29h29v89h-203v-60h87v31h29v-60h-29v-29h-29v-29h-29v-29h-29v-29h-234v29h29v29h29v29h29v29h29v29h29v60h29v58h30v58h30v58h29v58h29v58h29v89h-87 v-30h-30v59h30v29h29v29h29v29zM282 379v-29h145v204h-58v-59h-29v-58h-29v-58h-29zM282 321v-29h145v29h-145zM285 748v87h87v-87h-87zM495 748v87h88v-87h-88z" glyph-name="Adieresis" unicode="Ä"/><glyph d="M282 700h321v-29h-30v-58h-29v-468h29v-29h30v29h29v-58h-29v-29h-30v-43h-29v-44h-30v29h-29v29h-58v29h-58v29h29v29h29v89h-203v-60h87v31h29v-60h-29v-29h-29v-29h-29v-29h-29v-29h-234v29h29v29h29v29h29v29h29v29h29v60h29v58h30v58h30v58h29v58h29v58h29v89h-87 v-30h-30v59h30v29h29v29h29v29zM282 379v-29h145v204h-58v-59h-29v-58h-29v-58h-29zM282 321v-29h145v29h-145zM416 951h49v-12h25v-13h25v-12h12v-99h-12v-12h-13v-13h-12v-12h-12v-12h-13v-13h-12v-12h-49v12h-25v13h-25v12h-12v99h12v12h13v13h12v12h12v12h13v13h12v12z M391 902v-87h13v-12h24v-13h25v-12h12v12h13v87h-13v12h-24v13h-25v12h-12v-12h-13z" glyph-name="Aring" unicode="Å"/><glyph d="M789 727h29v-58h-29v-29h-29v-29h-28v-29h-190v-179l17 -3l6 28l28 -6l6 29l140 -30l6 29l28 -6l-12 -57l-28 6l-6 -29l-28 6l-5 -28l-28 6l-6 -29l-118 25v-111h-29v-29h-29v-29h86v-29h57v-30h115v30h28v29h29v-88h-29v-29h-28v-29h-29v-29h-172v29h-57v29h-57v29h-57 v59h28v29h28v29h-204v-58h87v29h30v-59h-30v-29h-29v-29h-29v-29h-29v-29h-232v29h29v29h29v29h29v29h29v30h29v58h29v58h29v58h29v58h29v58h29v58h29v88h-87v-29h-29v58h29v29h29v29h29v29h509v29zM280 378v-29h146v204h-58v-59h-29v-58h-30v-58h-29zM280 320v-29h146v29 h-146z" glyph-name="AE" horiz-adv-x="828" unicode="Æ"/><glyph d="M303 701h87v-29h58v-30h30v-29h58v-29h-29v-58h-29v-88h-30v-58h-29v88h-29v58h-29v29h-29v29h-60v-29h-29v-29h29v-29h31v-146h29v-29h-29v-29h-31v-31h-29v-29h-29v-29h-29v-29h58v-29h147v29h58v29h30v29h29v60h29v-118h-29v-29h-29v-59h-30v-29h-58v-29h-58v-29h-54 v-63h13v13h12v13h64v-13h13v-13h12v-12h13v-77h-13v-12h-12v-13h-13v-13h-13v-13h-12v-12h-13v-13h-51v13h-13v12h-25v13h-26v13h-12v13h12v12h13v13h51v-13h13v-12h12v-13h26v-13h13v13h12v76h-12v13h-13v13h-38v-13h-38v25h-13v63h-55v29h-58v29h-30v29h-29v30h-29v58h-29 v176h29v87h29v30h29v29h30v29h29v29h29v29h29v29h29v29h29v30h31v29zM127 438v-176h29v-29h29v264h-29v-59h-29z" glyph-name="Ccedilla" horiz-adv-x="546" unicode="Ç"/><glyph d="M487 730h29v-58h-29v-29h-29v-29h-30v-30h-195v-179l19 -4l5 30l30 -7l6 29l143 -30l6 29l28 -6l-11 -58l-30 6l-6 -28l-28 6l-6 -29l-28 6l-6 -28l-122 24v-112h-29v-29h-29v-29h88v-29h59v-29h117v29h29v29h29v-87h-29v-30h-29v-29h-30v-29h-176v29h-58v29h-58v30h-88 v-30h-29v59h29v29h29v29h30v29h29v322h29v29h29v29h-146v-29h-29v59h29v29h29v29h30v29h399v29zM120 930h102v-29h20v-29h14v-29h17v-27h21v-64h-29v15h-29v29h-29v29h-29v29h-29v29h-29v47z" glyph-name="Egrave" horiz-adv-x="526" unicode="È"/><glyph d="M487 730h29v-58h-29v-29h-29v-29h-30v-30h-195v-179l19 -4l5 30l30 -7l6 29l143 -30l6 29l28 -6l-11 -58l-30 6l-6 -28l-28 6l-6 -29l-28 6l-6 -28l-122 24v-112h-29v-29h-29v-29h88v-29h59v-29h117v29h29v29h29v-87h-29v-30h-29v-29h-30v-29h-176v29h-58v29h-58v30h-88 v-30h-29v59h29v29h29v29h30v29h29v322h29v29h29v29h-146v-29h-29v59h29v29h29v29h30v29h399v29zM339 930h102v-47h-29v-29h-29v-29h-29v-29h-30v-29h-29v-15h-29v64h22v27h16v29h15v29h20v29z" glyph-name="Eacute" horiz-adv-x="526" unicode="É"/><glyph d="M487 730h29v-58h-29v-29h-29v-29h-30v-30h-195v-179l19 -4l5 30l30 -7l6 29l143 -30l6 29l28 -6l-11 -58l-30 6l-6 -28l-28 6l-6 -29l-28 6l-6 -28l-122 24v-112h-29v-29h-29v-29h88v-29h59v-29h117v29h29v29h29v-87h-29v-30h-29v-29h-30v-29h-176v29h-58v29h-58v30h-88 v-30h-29v59h29v29h29v29h30v29h29v322h29v29h29v29h-146v-29h-29v59h29v29h29v29h30v29h399v29zM267 930h29v-17h29v-29h29v-29h29v-29h29v-29h29v-47h-72v29h-29v29h-29v29h-59v-29h-29v-29h-29v-29h-72v47h29v29h29v29h29v29h29v29h29v17z" glyph-name="Ecircumflex" horiz-adv-x="526" unicode="Ê"/><glyph d="M487 730h29v-58h-29v-29h-29v-29h-30v-30h-195v-179l19 -4l5 30l30 -7l6 29l143 -30l6 29l28 -6l-11 -58l-30 6l-6 -28l-28 6l-6 -29l-28 6l-6 -28l-122 24v-112h-29v-29h-29v-29h88v-29h59v-29h117v29h29v29h29v-87h-29v-30h-29v-29h-30v-29h-176v29h-58v29h-58v30h-88 v-30h-29v59h29v29h29v29h30v29h29v322h29v29h29v29h-146v-29h-29v59h29v29h29v29h30v29h399v29zM132 748v87h87v-87h-87zM342 748v87h88v-87h-88z" glyph-name="Edieresis" horiz-adv-x="526" unicode="Ë"/><glyph d="M238 729h29v-58h-29v-29h-29v-496h29v-29h29v29h30v-59h-30v-29h-29v-44h-29v-43h-29v29h-29v29h-59v29h-58v29h29v30h29v408h29v29h30v30h-117v-30h-29v59h29v29h29v29h29v29h146v29zM-11 930h102v-29h20v-29h14v-29h17v-27h21v-64h-29v15h-29v29h-29v29h-29v29h-29v29 h-29v47z" glyph-name="Igrave" horiz-adv-x="308" unicode="Ì"/><glyph d="M238 729h29v-58h-29v-29h-29v-496h29v-29h29v29h30v-59h-30v-29h-29v-44h-29v-43h-29v29h-29v29h-59v29h-58v29h29v30h29v408h29v29h30v30h-117v-30h-29v59h29v29h29v29h29v29h146v29zM208 930h102v-47h-29v-29h-29v-29h-29v-29h-30v-29h-29v-15h-29v64h22v27h16v29h15 v29h20v29z" glyph-name="Iacute" horiz-adv-x="308" unicode="Í"/><glyph d="M238 729h29v-58h-29v-29h-29v-496h29v-29h29v29h30v-59h-30v-29h-29v-44h-29v-43h-29v29h-29v29h-59v29h-58v29h29v30h29v408h29v29h30v30h-117v-30h-29v59h29v29h29v29h29v29h146v29zM136 930h29v-17h29v-29h29v-29h29v-29h29v-29h29v-47h-72v29h-29v29h-29v29h-59v-29 h-29v-29h-29v-29h-72v47h29v29h29v29h29v29h29v29h29v17z" glyph-name="Icircumflex" horiz-adv-x="308" unicode="Î"/><glyph d="M238 729h29v-58h-29v-29h-29v-496h29v-29h29v29h30v-59h-30v-29h-29v-44h-29v-43h-29v29h-29v29h-59v29h-58v29h29v30h29v408h29v29h30v30h-117v-30h-29v59h29v29h29v29h29v29h146v29zM1 748v87h87v-87h-87zM211 748v87h88v-87h-88z" glyph-name="Idieresis" horiz-adv-x="308" unicode="Ï"/><glyph d="M263 730h30v-58h-30v-29h-30v-59h30v30h30v29h29v29h29v29h29v-29h29v-29h30v-29h29v-59h29v-29h29v-58h29v-59h29v-176h-29v-29h-29v-29h-29v-29h-29v-29h-29v-29h-30v-30h-29v-29h-29v-29h-118v29h-58v29h-58v30h-88v-30h-29v59h29v29h29v29h30v29h29v122h-114v48h114 v152h29v29h29v29h-146v-29h-29v59h29v29h29v29h30v29h175v29zM204 233v-29h29v-29h49v-29h40v-29h87v29h30v58h29v147h-29v58h-30v30h-29v58h-29v29h-29v58h-29v-29h-30v-29h-30v-152h123v-48h-123v-93h-29z" glyph-name="Eth" horiz-adv-x="600" unicode="Ð"/><glyph d="M243 700h147v-29h58v-29h58v-29h87v29h30v-58h-30v-30h-29v-29h-29v-29h-29v-321h-29v-29h-29v-29h145v29h30v-59h-30v-29h-29v-29h-29v-29h-175v-29h-29v58h29v29h30v409h29v29h29v29h-88v29h-58v30h-59v29h-29v-29h-29v-409h-29v-29h-30v-29h146v29h30v-59h-30v-29h-29 v-29h-29v-29h-175v-29h-29v58h29v29h29v467h29v29h29v30h-87v-30h-29v59h29v29h29v29h29v29h59v-87h29v29h29v29h29v29zM306 890h121v-20h20v-20h20v-61h-20v20h-20v20h-40v-20h-41v-20h-20v-20h-121v20h-20v20h-20v61h20v-20h20v-21h41v21h20v20h40v20z" glyph-name="Ntilde" horiz-adv-x="643" unicode="Ñ"/><glyph d="M195 700h117v-29h59v-29h58v-29h29v-438h-29v-29h-29v-30h-29v-29h-30v-29h-29v-29h-30v-29h-116v29h-59v29h-58v29h-29v438h29v29h29v30h29v29h29v29h30v29h29v29zM93 930h102v-29h20v-29h14v-29h17v-27h21v-64h-29v15h-29v29h-29v29h-29v29h-29v29h-29v47zM136 584 v-409h30v-29h58v-30h58v-29h30v29h29v409h-29v29h-59v30h-58v29h-29v-29h-30z" glyph-name="Ograve" horiz-adv-x="478" unicode="Ò"/><glyph d="M195 700h117v-29h59v-29h58v-29h29v-438h-29v-29h-29v-30h-29v-29h-30v-29h-29v-29h-30v-29h-116v29h-59v29h-58v29h-29v438h29v29h29v30h29v29h29v29h30v29h29v29zM312 930h102v-47h-29v-29h-29v-29h-29v-29h-30v-29h-29v-15h-29v64h22v27h16v29h15v29h20v29zM136 584 v-409h30v-29h58v-30h58v-29h30v29h29v409h-29v29h-59v30h-58v29h-29v-29h-30z" glyph-name="Oacute" horiz-adv-x="478" unicode="Ó"/><glyph d="M195 700h117v-29h59v-29h58v-29h29v-438h-29v-29h-29v-30h-29v-29h-30v-29h-29v-29h-30v-29h-116v29h-59v29h-58v29h-29v438h29v29h29v30h29v29h29v29h30v29h29v29zM240 930h29v-17h29v-29h29v-29h29v-29h29v-29h29v-47h-72v29h-29v29h-29v29h-59v-29h-29v-29h-29v-29 h-72v47h29v29h29v29h29v29h29v29h29v17zM136 584v-409h30v-29h58v-30h58v-29h30v29h29v409h-29v29h-59v30h-58v29h-29v-29h-30z" glyph-name="Ocircumflex" horiz-adv-x="478" unicode="Ô"/><glyph d="M195 700h117v-29h59v-29h58v-29h29v-438h-29v-29h-29v-30h-29v-29h-30v-29h-29v-29h-30v-29h-116v29h-59v29h-58v29h-29v438h29v29h29v30h29v29h29v29h30v29h29v29zM245 890h121v-20h20v-20h20v-61h-20v20h-20v20h-40v-20h-41v-20h-20v-20h-121v20h-20v20h-20v61h20v-20 h20v-21h41v21h20v20h40v20zM136 584v-409h30v-29h58v-30h58v-29h30v29h29v409h-29v29h-59v30h-58v29h-29v-29h-30z" glyph-name="Otilde" horiz-adv-x="478" unicode="Õ"/><glyph d="M195 700h117v-29h59v-29h58v-29h29v-438h-29v-29h-29v-30h-29v-29h-30v-29h-29v-29h-30v-29h-116v29h-59v29h-58v29h-29v438h29v29h29v30h29v29h29v29h30v29h29v29zM105 748v87h87v-87h-87zM315 748v87h88v-87h-88zM136 584v-409h30v-29h58v-30h58v-29h30v29h29v409h-29 v29h-59v30h-58v29h-29v-29h-30z" glyph-name="Odieresis" horiz-adv-x="478" unicode="Ö"/><glyph d="M210 700h117v-29h59v29h115v-87h-28v-438h-29v-29h-29v-30h-29v-29h-30v-29h-29v-29h-30v-29h-116v29h-59v-29h-116v58h29v467h29v29h29v30h29v29h29v29h30v29h29v29zM239 116h58v-29h30v29h29v241h-29v-36h-29v-51h-29v-51h-29v-44h-30v-29h29v-30zM151 584v-295h30v54 h29v50h30v44h29v58h29v59h-30v30h-58v29h-29v-29h-30z" glyph-name="Oslash" horiz-adv-x="506" unicode="Ø"/><glyph d="M584 729h29v-58h-29v-29h-29v-496h29v-29h29v29h29v-58h-29v-30h-29v-43h-29v-44h-30v29h-29v29h-29v29h-29v30h-29v-30h-29v-29h-29v-29h-118v29h-58v29h-58v30h-88v-30h-29v59h29v29h29v29h29v29h30v322h29v29h29v29h-146v-29h-29v58h29v29h29v29h29v29h175v29h30v-58 h-30v-29h-29v-409h-29v-29h-29v-29h87v-29h59v-29h88v29h29v380h29v29h29v29h-116v-29h-29v58h29v29h29v29h29v29h146v29zM159 960h102v-29h20v-29h14v-29h17v-27h21v-64h-29v15h-29v29h-29v29h-29v29h-29v29h-29v47z" glyph-name="Ugrave" unicode="Ù"/><glyph d="M584 729h29v-58h-29v-29h-29v-496h29v-29h29v29h29v-58h-29v-30h-29v-43h-29v-44h-30v29h-29v29h-29v29h-29v30h-29v-30h-29v-29h-29v-29h-118v29h-58v29h-58v30h-88v-30h-29v59h29v29h29v29h29v29h30v322h29v29h29v29h-146v-29h-29v58h29v29h29v29h29v29h175v29h30v-58 h-30v-29h-29v-409h-29v-29h-29v-29h87v-29h59v-29h88v29h29v380h29v29h29v29h-116v-29h-29v58h29v29h29v29h29v29h146v29zM378 960h102v-47h-29v-29h-29v-29h-29v-29h-30v-29h-29v-15h-29v64h22v27h16v29h15v29h20v29z" glyph-name="Uacute" unicode="Ú"/><glyph d="M584 729h29v-58h-29v-29h-29v-496h29v-29h29v29h29v-58h-29v-30h-29v-43h-29v-44h-30v29h-29v29h-29v29h-29v30h-29v-30h-29v-29h-29v-29h-118v29h-58v29h-58v30h-88v-30h-29v59h29v29h29v29h29v29h30v322h29v29h29v29h-146v-29h-29v58h29v29h29v29h29v29h175v29h30v-58 h-30v-29h-29v-409h-29v-29h-29v-29h87v-29h59v-29h88v29h29v380h29v29h29v29h-116v-29h-29v58h29v29h29v29h29v29h146v29zM306 960h29v-17h29v-29h29v-29h29v-29h29v-29h29v-47h-72v29h-29v29h-29v29h-59v-29h-29v-29h-29v-29h-72v47h29v29h29v29h29v29h29v29h29v17z" glyph-name="Ucircumflex" unicode="Û"/><glyph d="M584 729h29v-58h-29v-29h-29v-496h29v-29h29v29h29v-58h-29v-30h-29v-43h-29v-44h-30v29h-29v29h-29v29h-29v30h-29v-30h-29v-29h-29v-29h-118v29h-58v29h-58v30h-88v-30h-29v59h29v29h29v29h29v29h30v322h29v29h29v29h-146v-29h-29v58h29v29h29v29h29v29h175v29h30v-58 h-30v-29h-29v-409h-29v-29h-29v-29h87v-29h59v-29h88v29h29v380h29v29h29v29h-116v-29h-29v58h29v29h29v29h29v29h146v29zM171 778v87h87v-87h-87zM381 778v87h88v-87h-88z" glyph-name="Udieresis" unicode="Ü"/><glyph d="M594 730h30v-59h-30v-29h-29v-454h-29v-29h-29v-29h-29v-29h-29v-29h-30v-29h-29v-30h-29v-29h-29v-29h-118v29h-58v29h-58v30h-59v-30h-29v59h29v29h29v29h30v29h29v29h58v-29h29v-29h48v-29h41v-29h87v29h29v58h30v103h-30v-29h-29v-30h-147v30h-58v29h-58v29h-88v29 h29v29h30v59h29v117h29v29h29v30h-146v-30h-29v59h29v29h29v29h30v29h175v30h30v-59h-30v-29h-30v-205h-29v-29h-29v-30h88v-29h59v-29h58v-29h29v29h30v205h29v29h29v30h-146v-30h-29v59h29v29h29v29h29v29h175v30zM374 960h102v-47h-29v-29h-29v-29h-29v-29h-30v-29h-29 v-15h-29v64h22v27h16v29h15v29h20v29z" glyph-name="Yacute" horiz-adv-x="624" unicode="Ý"/><glyph d="M97 698h174v-29h-29v-29h-29v-125h31v29h31v29h62v29h30v29h62v-29h31v-29h30v-29h31v-29h31v-58h31v-117h-31v-29h-31v-29h-31v-29h-30v-29h-31v-29h-31v-29h-92v29h-62v29h-31v-78h29v-29h29v29h30v-59h-30v-29h-29v-43h-29v-44h-29v29h-29v29h-58v29h-58v29h29v30h29 v136h-50v-29h-31v58h31v29h30v29h20v184h29v29h29v29h-116v-29h-29v58h29v29h29v29h29v29zM213 457v-87h62v-30h31v-29h61v-29h62v29h31v88h-31v58h-31v29h-31v29h-61v-29h-62v-29h-31z" glyph-name="Thorn" horiz-adv-x="588" unicode="Þ"/><glyph d="M465 821h29v-145h-29v-29h-29v-29h-29v-29h-29v-29h-29v-15h32v-25h31v-40h30v-29h31v-44h31v-29h31v-29h31v-58h30v-117h-30v-29h-31v-58h-31v-29h-31v-29h-31v-29h-61v29h-62v29h-30v29h-62v-29h-31v87h31v29h31v29h92v-29h31v-29h31v-29h30v29h31v88h-31v58h-30v58 h-31v29h-31v29h-31v29h-28v36h-29v-29h-30v-29h-58v58h29v29h29v29h30v30h29v29h29v29h29v29h-175v-30h-29v-530h29v-58h29v-29h-116v29h-29v29h-29v29h-29v29h29v29h29v502h29v29h29v29h29v29h29v29h29v29h262v29z" glyph-name="germandbls" horiz-adv-x="616" unicode="ß"/><glyph d="M229 555h58v-29h30v-29h59v-29h29v-30h29v-29h-29v-29h-29v-263h29v29h29v-117h-29v-29h-58v29h-30v29h-30v29h-29v-29h-29v-29h-29v-29h-88v29h-29v29h-29v29h-29v264h29v29h29v29h29v29h30v30h29v29h29v29h29v29zM98 785h102v-29h20v-29h14v-29h17v-27h21v-64h-29v15 h-29v29h-29v29h-29v29h-29v29h-29v47zM112 351v-176h30v-29h29v-29h29v-30h29v30h29v29h29v234h-29v29h-29v29h-29v-29h-29v-29h-29v-29h-30z" glyph-name="agrave" horiz-adv-x="444" unicode="à"/><glyph d="M229 555h58v-29h30v-29h59v-29h29v-30h29v-29h-29v-29h-29v-263h29v29h29v-117h-29v-29h-58v29h-30v29h-30v29h-29v-29h-29v-29h-29v-29h-88v29h-29v29h-29v29h-29v264h29v29h29v29h29v29h30v30h29v29h29v29h29v29zM317 785h102v-47h-29v-29h-29v-29h-29v-29h-30v-29h-29 v-15h-29v64h22v27h16v29h15v29h20v29zM112 351v-176h30v-29h29v-29h29v-30h29v30h29v29h29v234h-29v29h-29v29h-29v-29h-29v-29h-29v-29h-30z" glyph-name="aacute" horiz-adv-x="444" unicode="á"/><glyph d="M229 555h58v-29h30v-29h59v-29h29v-30h29v-29h-29v-29h-29v-263h29v29h29v-117h-29v-29h-58v29h-30v29h-30v29h-29v-29h-29v-29h-29v-29h-88v29h-29v29h-29v29h-29v264h29v29h29v29h29v29h30v30h29v29h29v29h29v29zM245 785h29v-17h29v-29h29v-29h29v-29h29v-29h29v-47 h-72v29h-29v29h-29v29h-59v-29h-29v-29h-29v-29h-72v47h29v29h29v29h29v29h29v29h29v17zM112 351v-176h30v-29h29v-29h29v-30h29v30h29v29h29v234h-29v29h-29v29h-29v-29h-29v-29h-29v-29h-30z" glyph-name="acircumflex" horiz-adv-x="444" unicode="â"/><glyph d="M229 555h58v-29h30v-29h59v-29h29v-30h29v-29h-29v-29h-29v-263h29v29h29v-117h-29v-29h-58v29h-30v29h-30v29h-29v-29h-29v-29h-29v-29h-88v29h-29v29h-29v29h-29v264h29v29h29v29h29v29h30v30h29v29h29v29h29v29zM250 745h121v-20h20v-20h20v-61h-20v20h-20v20h-40v-20 h-41v-20h-20v-20h-121v20h-20v20h-20v61h20v-20h20v-21h41v21h20v20h40v20zM112 351v-176h30v-29h29v-29h29v-30h29v30h29v29h29v234h-29v29h-29v29h-29v-29h-29v-29h-29v-29h-30z" glyph-name="atilde" horiz-adv-x="444" unicode="ã"/><glyph d="M229 555h58v-29h30v-29h59v-29h29v-30h29v-29h-29v-29h-29v-263h29v29h29v-117h-29v-29h-58v29h-30v29h-30v29h-29v-29h-29v-29h-29v-29h-88v29h-29v29h-29v29h-29v264h29v29h29v29h29v29h30v30h29v29h29v29h29v29zM110 603v87h87v-87h-87zM320 603v87h88v-87h-88z M112 351v-176h30v-29h29v-29h29v-30h29v30h29v29h29v234h-29v29h-29v29h-29v-29h-29v-29h-29v-29h-30z" glyph-name="adieresis" horiz-adv-x="444" unicode="ä"/><glyph d="M229 555h58v-29h30v-29h59v-29h29v-30h29v-29h-29v-29h-29v-263h29v29h29v-117h-29v-29h-58v29h-30v29h-30v29h-29v-29h-29v-29h-29v-29h-88v29h-29v29h-29v29h-29v264h29v29h29v29h29v29h30v30h29v29h29v29h29v29zM241 806h49v-12h25v-13h25v-12h12v-99h-12v-12h-13v-13 h-12v-12h-12v-12h-13v-13h-12v-12h-49v12h-25v13h-25v12h-12v99h12v12h13v13h12v12h12v12h13v13h12v12zM112 351v-176h30v-29h29v-29h29v-30h29v30h29v29h29v234h-29v29h-29v29h-29v-29h-29v-29h-29v-29h-30zM216 757v-87h13v-12h24v-13h25v-12h12v12h13v87h-13v12h-24v13 h-25v12h-12v-12h-13z" glyph-name="aring" horiz-adv-x="444" unicode="å"/><glyph d="M432 552h87v-29h29v-29h29v-58h29v-87h-29v-30h-58v-29h-58v-29h-29v-29h-29v-29h-29v-29h29v-58h29v-29h29v-29h58v29h29v29h29v29h29v-58h-29v-29h-29v-29h-29v-29h-116v29h-58v29h-29v58h-29v-29h-29v-29h-29v-29h-30v-29h-87v29h-29v29h-29v29h-29v145h29v29h29v29 h29v29h29v30h117v-30h29v117h-29v29h-29v29h-30v-29h-29v-29h-29v-29h-29v-29h-29v-29h-29v29h-29v87h29v29h29v29h29v29h146v-29h29v-29h29v-29h58v29h29v29h29v29zM374 407v-146h29v29h29v29h29v30h29v87h-29v29h-29v-29h-29v-29h-29zM112 232v-58h29v-29h29v-29h29v-29 h30v29h29v29h29v87h-29v29h-29v29h-59v-29h-29v-29h-29z" glyph-name="ae" horiz-adv-x="626" unicode="æ"/><glyph d="M176 555h87v-29h29v-29h31v-59h29v-87h-29v-29h-31v-29h-29v87h-29v58h-29v30h-29v-30h-29v-29h-30v-234h30v-58h29v-30h29v-29h58v29h29v30h31v29h29v-59h-29v-29h-31v-29h-29v-29h-45v-62h13v13h12v13h64v-13h13v-13h12v-12h13v-77h-13v-12h-12v-13h-13v-13h-13v-13 h-12v-12h-13v-13h-51v13h-13v12h-25v13h-26v13h-12v13h12v12h13v13h51v-13h13v-12h12v-13h26v-13h13v13h12v76h-12v13h-13v13h-38v-13h-38v25h-13v62h-44v29h-40v29h-37v59h-29v292h29v29h29v30h29v29h30v29h29v29z" glyph-name="ccedilla" horiz-adv-x="367" unicode="ç"/><glyph d="M176 555h87v-29h29v-29h31v-59h29v-87h-29v-29h-47v-29h-50v-31h-50v-29h-29v-29h-30v-29h30v-58h29v-30h29v-29h58v29h29v30h31v29h29v-59h-29v-29h-31v-29h-29v-29h-127v29h-40v29h-37v59h-29v292h29v29h29v30h29v29h30v29h29v29zM117 409v-147h30v31h29v29h29v29h29 v87h-29v30h-29v-30h-29v-29h-30zM56 785h102v-29h20v-29h14v-29h17v-27h21v-64h-29v15h-29v29h-29v29h-29v29h-29v29h-29v47z" glyph-name="egrave" horiz-adv-x="372" unicode="è"/><glyph d="M176 555h87v-29h29v-29h31v-59h29v-87h-29v-29h-47v-29h-50v-31h-50v-29h-29v-29h-30v-29h30v-58h29v-30h29v-29h58v29h29v30h31v29h29v-59h-29v-29h-31v-29h-29v-29h-127v29h-40v29h-37v59h-29v292h29v29h29v30h29v29h30v29h29v29zM117 409v-147h30v31h29v29h29v29h29 v87h-29v30h-29v-30h-29v-29h-30zM275 785h102v-47h-29v-29h-29v-29h-29v-29h-30v-29h-29v-15h-29v64h22v27h16v29h15v29h20v29z" glyph-name="eacute" horiz-adv-x="372" unicode="é"/><glyph d="M176 555h87v-29h29v-29h31v-59h29v-87h-29v-29h-47v-29h-50v-31h-50v-29h-29v-29h-30v-29h30v-58h29v-30h29v-29h58v29h29v30h31v29h29v-59h-29v-29h-31v-29h-29v-29h-127v29h-40v29h-37v59h-29v292h29v29h29v30h29v29h30v29h29v29zM117 409v-147h30v31h29v29h29v29h29 v87h-29v30h-29v-30h-29v-29h-30zM203 785h29v-17h29v-29h29v-29h29v-29h29v-29h29v-47h-72v29h-29v29h-29v29h-59v-29h-29v-29h-29v-29h-72v47h29v29h29v29h29v29h29v29h29v17z" glyph-name="ecircumflex" horiz-adv-x="372" unicode="ê"/><glyph d="M176 555h87v-29h29v-29h31v-59h29v-87h-29v-29h-47v-29h-50v-31h-50v-29h-29v-29h-30v-29h30v-58h29v-30h29v-29h58v29h29v30h31v29h29v-59h-29v-29h-31v-29h-29v-29h-127v29h-40v29h-37v59h-29v292h29v29h29v30h29v29h30v29h29v29zM117 409v-147h30v31h29v29h29v29h29 v87h-29v30h-29v-30h-29v-29h-30zM68 603v87h87v-87h-87zM278 603v87h88v-87h-88z" glyph-name="edieresis" horiz-adv-x="372" unicode="ë"/><glyph d="M63 555h58v-29h30v-29h29v-29h29v-29h-58v-321h29v29h29v-88h-29v-43h-29v-44h-30v29h-43v29h-44v29h-29v29h29v30h29v321h-29v-29h-29v87h29v29h29v29zM-58 787h102v-29h20v-29h14v-29h17v-27h21v-64h-29v15h-29v29h-29v29h-29v29h-29v29h-29v47z" glyph-name="igrave" horiz-adv-x="219" unicode="ì"/><glyph d="M63 555h58v-29h30v-29h29v-29h29v-29h-58v-321h29v29h29v-88h-29v-43h-29v-44h-30v29h-43v29h-44v29h-29v29h29v30h29v321h-29v-29h-29v87h29v29h29v29zM165 786h102v-47h-29v-29h-29v-29h-29v-29h-30v-29h-29v-15h-29v64h22v27h16v29h15v29h20v29z" glyph-name="iacute" horiz-adv-x="219" unicode="í"/><glyph d="M63 555h58v-29h30v-29h29v-29h29v-29h-58v-321h29v29h29v-88h-29v-43h-29v-44h-30v29h-43v29h-44v29h-29v29h29v30h29v321h-29v-29h-29v87h29v29h29v29zM77 793h29v-17h29v-29h29v-29h29v-29h29v-29h29v-47h-72v29h-29v29h-29v29h-59v-29h-29v-29h-29v-29h-72v47h29v29 h29v29h29v29h29v29h29v17z" glyph-name="icircumflex" horiz-adv-x="219" unicode="î"/><glyph d="M63 555h58v-29h30v-29h29v-29h29v-29h-58v-321h29v29h29v-88h-29v-43h-29v-44h-30v29h-43v29h-44v29h-29v29h29v30h29v321h-29v-29h-29v87h29v29h29v29zM-58 612v87h87v-87h-87zM152 612v87h88v-87h-88z" glyph-name="idieresis" horiz-adv-x="219" unicode="ï"/><glyph d="M417 814h29v-58h-29v-29h-29v-29h-29v-29h29v-29h29v-29h29v-437h-29v-29h-29v-29h-29v-29h-29v-29h-29v-29h-29v-29h-117v29h-58v29h-58v29h-29v204h29v29h29v29h29v29h29v29h29v29h29v29h117v-29h29v204h-29v-29h-29v-30h-29v-29h-30v59h30v29h29v29h29v29h-58v-29h-59 v-29h-58v-29h-29v-30h-58v30h-29v87h29v29h58v29h58v29h117v-29h29v-29h58v29h29v29h29v29zM126 349v-175h29v-29h58v-29h59v-29h29v29h29v175h-29v29h-58v29h-59v29h-29v-29h-29z" glyph-name="eth" horiz-adv-x="471" unicode="ð"/><glyph d="M248 555h60v-29h29v-29h29v-29h29v-30h58v-29h-29v-29h-29v-263h29v29h29v-88h-29v-43h-29v-44h-29v29h-44v29h-45v29h-29v30h29v29h31v263h-31v29h-29v29h-58v-29h-29v-292h29v29h29v-88h-29v-43h-29v-44h-29v29h-44v29h-44v29h-29v30h29v29h29v321h-29v-29h-29v88h29 v29h29v29h59v-29h29v-58h29v29h29v29h29v29zM186 745h121v-20h20v-20h20v-61h-20v20h-20v20h-40v-20h-41v-20h-20v-20h-121v20h-20v20h-20v61h20v-20h20v-21h41v21h20v20h40v20z" glyph-name="ntilde" horiz-adv-x="479" unicode="ñ"/><glyph d="M200 555h58v-29h29v-29h31v-29h29v-293h-29v-29h-31v-29h-29v-30h-29v-29h-29v-29h-29v-29h-59v29h-29v29h-29v29h-29v293h29v29h29v29h29v30h30v29h29v29h29v29zM112 409v-234h30v-29h29v-29h58v29h29v234h-29v29h-29v29h-58v-29h-30zM66 785h102v-29h20v-29h14v-29h17 v-27h21v-64h-29v15h-29v29h-29v29h-29v29h-29v29h-29v47z" glyph-name="ograve" horiz-adv-x="372" unicode="ò"/><glyph d="M200 555h58v-29h29v-29h31v-29h29v-293h-29v-29h-31v-29h-29v-30h-29v-29h-29v-29h-29v-29h-59v29h-29v29h-29v29h-29v293h29v29h29v29h29v30h30v29h29v29h29v29zM112 409v-234h30v-29h29v-29h58v29h29v234h-29v29h-29v29h-58v-29h-30zM285 785h102v-47h-29v-29h-29v-29 h-29v-29h-30v-29h-29v-15h-29v64h22v27h16v29h15v29h20v29z" glyph-name="oacute" horiz-adv-x="372" unicode="ó"/><glyph d="M200 555h58v-29h29v-29h31v-29h29v-293h-29v-29h-31v-29h-29v-30h-29v-29h-29v-29h-29v-29h-59v29h-29v29h-29v29h-29v293h29v29h29v29h29v30h30v29h29v29h29v29zM112 409v-234h30v-29h29v-29h58v29h29v234h-29v29h-29v29h-58v-29h-30zM213 785h29v-17h29v-29h29v-29h29 v-29h29v-29h29v-47h-72v29h-29v29h-29v29h-59v-29h-29v-29h-29v-29h-72v47h29v29h29v29h29v29h29v29h29v17z" glyph-name="ocircumflex" horiz-adv-x="372" unicode="ô"/><glyph d="M200 555h58v-29h29v-29h31v-29h29v-293h-29v-29h-31v-29h-29v-30h-29v-29h-29v-29h-29v-29h-59v29h-29v29h-29v29h-29v293h29v29h29v29h29v30h30v29h29v29h29v29zM112 409v-234h30v-29h29v-29h58v29h29v234h-29v29h-29v29h-58v-29h-30zM218 745h121v-20h20v-20h20v-61 h-20v20h-20v20h-40v-20h-41v-20h-20v-20h-121v20h-20v20h-20v61h20v-20h20v-21h41v21h20v20h40v20z" glyph-name="otilde" horiz-adv-x="372" unicode="õ"/><glyph d="M200 555h58v-29h29v-29h31v-29h29v-293h-29v-29h-31v-29h-29v-30h-29v-29h-29v-29h-29v-29h-59v29h-29v29h-29v29h-29v293h29v29h29v29h29v30h30v29h29v29h29v29zM112 409v-234h30v-29h29v-29h58v29h29v234h-29v29h-29v29h-58v-29h-30zM78 603v87h87v-87h-87zM288 603v87 h88v-87h-88z" glyph-name="odieresis" horiz-adv-x="372" unicode="ö"/><glyph d="M227 555h58v-29h29v-1h2v30h93v-69h-23v-36h-12v-275h-29v-29h-31v-29h-29v-30h-29v-29h-29v-29h-29v-29h-59v29h-31v-29h-92v46h23v39h13v295h29v29h29v29h29v30h30v29h29v29h29v29zM139 409v-180h16v42h23v41h23v35h23v46h23v16h-20v29h-58v-29h-30zM198 117h58v29h29 v138h-15v-30h-23v-40h-23v-41h-26v-56z" glyph-name="oslash" horiz-adv-x="424" unicode="ø"/><glyph d="M297 555h59v-29h58v-30h29v-29h-29v-29h-29v-321h29v29h29v-88h-29v-43h-29v-44h-29v29h-30v29h-29v59h-30v-30h-29v-29h-29v-29h-58v29h-29v29h-30v30h-29v29h-58v29h29v29h29v263h-29v-29h-29v87h29v30h29v29h59v-29h58v-30h29v-29h-29v-29h-29v-263h29v-29h29v-29h58 v29h30v292h-30v-29h-29v87h29v30h30v29zM48 785h102v-29h20v-29h14v-29h17v-27h21v-64h-29v15h-29v29h-29v29h-29v29h-29v29h-29v47z" glyph-name="ugrave" horiz-adv-x="453" unicode="ù"/><glyph d="M297 555h59v-29h58v-30h29v-29h-29v-29h-29v-321h29v29h29v-88h-29v-43h-29v-44h-29v29h-30v29h-29v59h-30v-30h-29v-29h-29v-29h-58v29h-29v29h-30v30h-29v29h-58v29h29v29h29v263h-29v-29h-29v87h29v30h29v29h59v-29h58v-30h29v-29h-29v-29h-29v-263h29v-29h29v-29h58 v29h30v292h-30v-29h-29v87h29v30h30v29zM267 785h102v-47h-29v-29h-29v-29h-29v-29h-30v-29h-29v-15h-29v64h22v27h16v29h15v29h20v29z" glyph-name="uacute" horiz-adv-x="453" unicode="ú"/><glyph d="M297 555h59v-29h58v-30h29v-29h-29v-29h-29v-321h29v29h29v-88h-29v-43h-29v-44h-29v29h-30v29h-29v59h-30v-30h-29v-29h-29v-29h-58v29h-29v29h-30v30h-29v29h-58v29h29v29h29v263h-29v-29h-29v87h29v30h29v29h59v-29h58v-30h29v-29h-29v-29h-29v-263h29v-29h29v-29h58 v29h30v292h-30v-29h-29v87h29v30h30v29zM195 785h29v-17h29v-29h29v-29h29v-29h29v-29h29v-47h-72v29h-29v29h-29v29h-59v-29h-29v-29h-29v-29h-72v47h29v29h29v29h29v29h29v29h29v17z" glyph-name="ucircumflex" horiz-adv-x="453" unicode="û"/><glyph d="M297 555h59v-29h58v-30h29v-29h-29v-29h-29v-321h29v29h29v-88h-29v-43h-29v-44h-29v29h-30v29h-29v59h-30v-30h-29v-29h-29v-29h-58v29h-29v29h-30v30h-29v29h-58v29h29v29h29v263h-29v-29h-29v87h29v30h29v29h59v-29h58v-30h29v-29h-29v-29h-29v-263h29v-29h29v-29h58 v29h30v292h-30v-29h-29v87h29v30h30v29zM60 603v87h87v-87h-87zM270 603v87h88v-87h-88z" glyph-name="udieresis" horiz-adv-x="453" unicode="ü"/><glyph d="M297 555h59v-30h58v-29h29v-29h-29v-29h-29v-262h29v-88h29v-59h29v-116h-29v-30h-29v-29h-58v-29h-30v-29h-117v29h-58v29h-59v29h-58v30h29v29h29v29h88v-29h29v-29h29v-30h29v-29h59v29h30v30h29v58h-29v58h-30v88h-29v-29h-30v-30h-29v-29h-29v-29h-58v29h-29v29h-30 v30h-29v29h-58v30h29v29h29v262h-29v-29h-29v87h29v29h29v30h59v-30h58v-29h29v-29h-29v-29h-29v-262h29v-29h29v-30h58v30h30v291h-30v-29h-29v87h29v29h30v30zM267 785h102v-47h-29v-29h-29v-29h-29v-29h-30v-29h-29v-15h-29v64h22v27h16v29h15v29h20v29z" glyph-name="yacute" horiz-adv-x="483" unicode="ý"/><glyph d="M68 792h58v-29h29v-29h29v-29h29v-29h-58v-211h29v29h29v29h29v29h88v-29h29v-29h29v-29h29v-261h-29v-29h-29v-30h-29v-29h-29v-29h-29v-29h-30v-29h-29v-29h-58v-116h29v-58h29v-29h-116v29h-29v29h-29v29h-29v29h29v29h29v145h-29v29h-29v29h29v30h29v501h-29v-29h-29 v87h29v29h29v29zM155 407v-232h29v-30h29v-29h29v29h30v30h29v58h29v145h-29v29h-29v29h-30v29h-29v-29h-29v-29h-29z" glyph-name="thorn" horiz-adv-x="442" unicode="þ"/><glyph d="M297 555h59v-30h58v-29h29v-29h-29v-29h-29v-262h29v-88h29v-59h29v-116h-29v-30h-29v-29h-58v-29h-30v-29h-117v29h-58v29h-59v29h-58v30h29v29h29v29h88v-29h29v-29h29v-30h29v-29h59v29h30v30h29v58h-29v58h-30v88h-29v-29h-30v-30h-29v-29h-29v-29h-58v29h-29v29h-30 v30h-29v29h-58v30h29v29h29v262h-29v-29h-29v87h29v29h29v30h59v-30h58v-29h29v-29h-29v-29h-29v-262h29v-29h29v-30h58v30h30v291h-30v-29h-29v87h29v29h30v30zM60 603v87h87v-87h-87zM270 603v87h88v-87h-88z" glyph-name="ydieresis" horiz-adv-x="483" unicode="ÿ"/><glyph d="M263 730h30v-58h-30v-29h-30v-59h30v30h30v29h29v29h29v29h29v-29h29v-29h30v-29h29v-59h29v-29h29v-58h29v-59h29v-176h-29v-29h-29v-29h-29v-29h-29v-29h-29v-29h-30v-30h-29v-29h-29v-29h-118v29h-58v29h-58v30h-88v-30h-29v59h29v29h29v29h30v29h29v122h-114v48h114 v152h29v29h29v29h-146v-29h-29v59h29v29h29v29h30v29h175v29zM204 233v-29h29v-29h49v-29h40v-29h87v29h30v58h29v147h-29v58h-30v30h-29v58h-29v29h-29v58h-29v-29h-30v-29h-30v-152h123v-48h-123v-93h-29z" glyph-name="Dcroat" horiz-adv-x="600" unicode="Đ"/><glyph d="M287 794h59v-29h29v-30h29v-29h29v-29h-58v-46h60v-48h-60v-116h29v-30h29v-29h-29v-29h-29v-263h29v30h29v-117h-29v-29h-58v29h-29v29h-30v29h-29v-29h-29v-29h-29v-29h-30v-29h-29v29h-29v29h-29v29h-29v29h-29v263h29v29h29v29h29v29h29v30h29v29h30v29h29v29h58v29 h-205v48h205v46h-29v-29h-29v87h29v30h29v29zM112 350v-175h29v-29h29v-30h30v-29h29v29h29v30h29v262h-29v29h-29v23h-29v-38h-30v-29h-29v-43h-29z" glyph-name="dcroat" horiz-adv-x="450" unicode="đ"/><glyph d="M73 555h58v-29h30v-29h29v-29h29v-29h-58v-321h29v29h29v-88h-29v-43h-29v-44h-30v29h-43v29h-44v29h-29v29h29v30h29v321h-29v-29h-29v87h29v29h29v29z" glyph-name="dotlessi" horiz-adv-x="239" unicode="ı"/><glyph d="M262 729h30v-58h-30v-30h-29v-157l54 54l34 -34l-88 -88v-183h-29v-29h-29v-29h87v-29h59v-30h117v30h29v29h29v-88h-29v-29h-29v-29h-29v-29h-176v29h-58v29h-59v29h-87v-29h-29v58h29v30h29v29h29v29h29v94l-44 -44l-34 34l78 78v159h30v29h29v29h-146v-29h-29v58h29 v29h29v30h29v29h175v29z" glyph-name="Lslash" horiz-adv-x="491" unicode="Ł"/><glyph d="M105 791h58v-29h29v-29h29v-29h29v-29h-58v-205l68 68l33 -34l-101 -101v-287h29v29h29v-87h-29v-43h-29v-44h-29v29h-43v29h-44v29h-29v29h29v29h29v199l-61 -61l-34 34l95 95v292h-29v-29h-29v87h29v29h29v29z" glyph-name="lslash" horiz-adv-x="303" unicode="ł"/><glyph d="M702 727h29v-58h-29v-29h-29v-29h-28v-29l-189 -1v-178l16 -3l6 28l28 -6l6 29l140 -30l6 29l28 -6l-12 -57l-28 6l-6 -29l-28 6l-5 -28l-28 6l-6 -29l-117 25v-169h27v-29h57v-30h115v30h28v29h29v-88h-29v-29h-28v-29h-29v-29h-172v29h-57v29h-28v29h-29v-29h-29v-29 h-29v-29h-116v29h-59v29h-58v29h-29v437h29v29h29v29h29v29h30v29h29v29h29v29h507v29zM137 582v-407h29v-29h58v-30h58v-29h29v29h29v465l-145 1v29h-29v-29h-29z" glyph-name="OE" horiz-adv-x="741" unicode="Œ"/><glyph d="M403 552h87v-29h29v-29h29v-58h29v-87h-29v-30h-58v-29h-58v-29h-29v-29h-29v-29h-29v-58h29v-29h29v-29h29v-29h58v29h29v29h29v29h29v-58h-29v-29h-29v-29h-29v-29h-116v29h-58v29h-29v58h-29v-29h-29v-29h-29v-29h-30v-29h-58v29h-29v29h-29v29h-29v291h29v29h29v29 h29v29h29v29h29v29h30v29h58v-29h29v-29h29v-29h29v29h29v29h29v29zM112 407v-233h29v-29h29v-29h59v29h29v233h-29v29h-29v29h-59v-29h-29zM345 407v-146h29v29h29v29h29v30h29v116h-58v-29h-29v-29h-29z" glyph-name="oe" horiz-adv-x="597" unicode="œ"/><glyph d="M211 700h93v-29h62v-29h62v-29h61v29h31v-58h-31v-30h-31v-29h-30v-29h-94v29h-30v29h-62v30h-61v-59h-31v-29h31v-58h30v-29h31v-29h155v-29h31v-30h30v-59h31v-87h-31v-29h-30v-30h-31v-29h-31v-29h-32v-29h-30v-29h-93v29h-61v29h-63v29h-61v-29h-31v58h31v30h31v29 h30v29h94v-29h30v-29h62v-30h61v59h32v29h-32v58h-30v30h-31v29h-154v30h-32v29h-30v58h-31v87h31v29h30v30h32v29h31v29h31v29h30v29zM345 930h73v-47h-29v-29h-29v-29h-30v-29h-29v-29h-29v-17h-29v17h-29v29h-29v29h-29v29h-29v29h-29v47h73v-29h29v-29h29v-29h58v29h29 v29h29v29z" glyph-name="Scaron" horiz-adv-x="521" unicode="Š"/><glyph d="M155 554h92v-29h31v-29h31v-29h30v29h31v-87h-31v-29h-92v29h-31v29h-30v29h-31v-29h-32v-58h32v-30h31v-29h61v-29h31v-30h31v-29h30v-29h31v-88h-31v-29h-30v-29h-31v-29h-31v-29h-124v29h-31v29h-30v29h-31v-29h-31v58h31v30h31v29h93v-29h31v-59h61v29h31v59h-31v29 h-31v29h-61v29h-32v30h-31v29h-30v29h-31v88h31v29h30v29h31v29h32v29zM289 785h73v-47h-29v-29h-29v-29h-30v-29h-29v-29h-29v-17h-29v17h-29v29h-29v29h-29v29h-29v29h-29v47h73v-29h29v-29h29v-29h58v29h29v29h29v29z" glyph-name="scaron" horiz-adv-x="376" unicode="š"/><glyph d="M594 730h30v-59h-30v-29h-29v-454h-29v-29h-29v-29h-29v-29h-29v-29h-30v-29h-29v-30h-29v-29h-29v-29h-118v29h-58v29h-58v30h-59v-30h-29v59h29v29h29v29h30v29h29v29h58v-29h29v-29h48v-29h41v-29h87v29h29v58h30v103h-30v-29h-29v-30h-147v30h-58v29h-58v29h-88v29 h29v29h30v59h29v117h29v29h29v30h-146v-30h-29v59h29v29h29v29h30v29h175v30h30v-59h-30v-29h-30v-205h-29v-29h-29v-30h88v-29h59v-29h58v-29h29v29h30v205h29v29h29v30h-146v-30h-29v59h29v29h29v29h29v29h175v30zM167 778v87h87v-87h-87zM377 778v87h88v-87h-88z" glyph-name="Ydieresis" horiz-adv-x="624" unicode="Ÿ"/><glyph d="M477 729h29v-116h-29v-30h-29v-29h-29v-58h-29v-29h-30v-29h-29v-29h117v29h29v-58h-29v-30h-29v-29h-29v-29h-147v-30h-29v-29h-29v-29h-29v-29h-30v-29h351v29h29v-88h-29v-29h-29v-29h-29v-29h-380v29h-29v117h29v29h29v29h29v29h29v29h30v30h-88v-30h-29v88h29v30h29 v29h146v29h29v29h30v29h29v29h29v29h-321v-29h-29v58h29v30h29v29h29v29h29v29h351v29zM387 930h73v-47h-29v-29h-29v-29h-30v-29h-29v-29h-29v-17h-29v17h-29v29h-29v29h-29v29h-29v29h-29v47h73v-29h29v-29h29v-29h58v29h29v29h29v29z" glyph-name="Zcaron" horiz-adv-x="517" unicode="Ž"/><glyph d="M74 555h325v-59h-30v-59h-29v-30h-30v-30h-30v-29h-30v-23h119v29h30v-59h-30v-30h-29v-30h-148v-29h-30v-29h-29v-30h-30v-29h266v29h30v-88h-30v-30h-29v-29h-325v118h29v29h30v30h29v29h30v29h-89v-29h-29v59h29v30h30v30h118v23h29v29h29v30h30v30h-236v-30h-29v89 h29v30h30v29zM317 785h73v-47h-29v-29h-29v-29h-30v-29h-29v-29h-29v-17h-29v17h-29v29h-29v29h-29v29h-29v29h-29v47h73v-29h29v-29h29v-29h58v29h29v29h29v29z" glyph-name="zcaron" horiz-adv-x="414" unicode="ž"/><glyph d="M175 700h29v-17h29v-29h29v-29h29v-29h29v-29h29v-47h-72v29h-29v29h-29v29h-59v-29h-29v-29h-29v-29h-72v47h29v29h29v29h29v29h29v29h29v17z" glyph-name="circumflex" horiz-adv-x="379" unicode="ˆ"/><glyph d="M277 700h73v-47h-29v-29h-29v-29h-30v-29h-29v-29h-29v-17h-29v17h-29v29h-29v29h-29v29h-29v29h-29v47h73v-29h29v-29h29v-29h58v29h29v29h29v29z" glyph-name="caron" horiz-adv-x="380" unicode="ˇ"/><glyph d="M166 700h49v-49h-12v-13h-12v-12h-13v-12h-12v-13h-12v-12h-13v-12h-49v12h-25v12h-24v13h-13v86h50v-49h12v-13h25v-12h24v-12h13v12h12v74z" glyph-name="breve" horiz-adv-x="245" unicode="˘"/><glyph d="M30 613v87h87v-87h-87z" glyph-name="dotaccent" horiz-adv-x="147" unicode="˙"/><glyph d="M104 701h49v-12h25v-13h25v-12h12v-99h-12v-12h-13v-13h-12v-12h-12v-12h-13v-13h-12v-12h-49v12h-25v13h-25v12h-12v99h12v12h13v13h12v12h12v12h13v13h12v12zM79 652v-87h13v-12h24v-13h25v-12h12v12h13v87h-13v12h-24v13h-25v12h-12v-12h-13z" glyph-name="ring" horiz-adv-x="245" unicode="˚"/><glyph d="M144 25h25v-25h-12v-13h-13v-13h-13v-13h-12v-12h-13v-13h-13v-25h-13v-64h13v-13h13v13h25v13h13v12h13v13h51v-13h12v-12h13v-13h-13v-13h-25v-12h-26v-13h-12v-13h-51v13h-13v13h-13v12h-12v13h-13v13h-13v12h-12v51h12v26h13v12h25v13h13v13h13v13h25v12h13v13z" glyph-name="ogonek" horiz-adv-x="263" unicode="˛"/><glyph d="M181 700h121v-20h20v-20h20v-61h-20v20h-20v20h-40v-20h-41v-20h-20v-20h-121v20h-20v20h-20v61h20v-20h20v-21h41v21h20v20h40v20z" glyph-name="tilde" horiz-adv-x="382" unicode="˜"/><glyph d="M103 700h102v-47h-29v-29h-29v-29h-29v-29h-30v-29h-29v-15h-29v64h22v27h16v29h15v29h20v29zM319 700h101v-47h-29v-29h-29v-29h-29v-29h-29v-29h-29v-15h-29v64h21v27h17v29h14v29h21v29z" glyph-name="hungarumlaut" horiz-adv-x="450" unicode="˝"/><glyph d="M146 700h29v-87h-29v-58h-29v-58h-87v58h29v58h29v29h29v29h29v29z" glyph-name="quoteleft" horiz-adv-x="205" unicode="‘"/><glyph d="M88 700h87v-58h-29v-58h-29v-29h-29v-29h-29v-29h-29v87h29v58h29v58z" glyph-name="quoteright" horiz-adv-x="205" unicode="’"/><glyph d="M88 116h87v-58h-29v-58h-29v-29h-29v-29h-29v-29h-29v87h29v58h29v58z" glyph-name="quotesinglbase" horiz-adv-x="205" unicode="‚"/><glyph d="M146 700h29v-87h-29v-58h-29v-58h-87v58h29v58h29v29h29v29h29v29zM277 700h29v-87h-29v-58h-29v-58h-87v58h29v58h29v29h29v29h29v29z" glyph-name="quotedblleft" horiz-adv-x="336" unicode="“"/><glyph d="M219 700h87v-58h-29v-58h-29v-29h-29v-29h-29v-29h-29v87h29v58h29v58zM88 700h87v-58h-29v-58h-29v-29h-29v-29h-29v-29h-29v87h29v58h29v58z" glyph-name="quotedblright" horiz-adv-x="336" unicode="”"/><glyph d="M219 116h87v-58h-29v-58h-29v-29h-29v-29h-29v-29h-29v87h29v58h29v58zM88 116h87v-58h-29v-58h-29v-29h-29v-29h-29v-29h-29v87h29v58h29v58z" glyph-name="quotedblbase" horiz-adv-x="336" unicode="„"/><glyph d="M542 700h116v-87h-29v-44h-29v-45h-29v-58h-29v-58h-30v-51h-30v-36h-29v-51h-29v-51h-29v-45h-29v-50h-29v-45h-29v-41h-29v-38h-117v58h30v49h29v38h29v54h29v42h29v48h29v53h29v51h29v44h29v58h29v59h29v53h30v55h30v38zM635 404h85v-21h42v-22h43v-21h21v-213h-21 v-21h-22v-21h-21v-21h-21v-22h-21v-21h-21v-21h-85v21h-43v21h-43v22h-21v213h21v21h22v21h21v21h22v21h21v22h21v21zM991 404h85v-21h43v-22h42v-21h21v-213h-21v-21h-21v-21h-21v-21h-22v-22h-21v-21h-21v-21h-85v21h-42v21h-44v22h-21v213h21v21h23v21h21v21h21v21h21v22 h21v21zM137 700h86v-21h42v-22h43v-21h21v-213h-21v-21h-21v-21h-22v-21h-21v-22h-21v-21h-21v-21h-86v21h-42v21h-43v22h-21v213h21v21h21v21h22v21h21v21h21v22h21v21zM593 319v-192h21v-21h42v-21h43v-21h21v21h21v192h-21v21h-43v21h-42v21h-21v-21h-21zM949 319v-192 h21v-21h43v-21h42v-21h21v21h21v192h-21v21h-42v21h-43v21h-21v-21h-21zM95 615v-192h21v-21h42v-21h44v-21h21v21h21v192h-21v21h-43v21h-43v21h-21v-21h-21z" glyph-name="perthousand" horiz-adv-x="1193" unicode="‰"/><glyph d="M243 517h94v-29h-29v-29h-29v-29h-29v-29h-29v-29h-29v-29h-29v-29h-29v-29h29v-30h29v-29h29v-29h29v-29h29v-29h29v-29h29v-29h-94v29h-29v29h-29v29h-29v29h-29v29h-29v29h-29v30h-29v29h29v29h29v29h29v29h29v29h29v29h29v29h29v29z" glyph-name="guilsinglleft" horiz-adv-x="377" unicode="‹"/><glyph d="M40 517h94v-29h29v-29h29v-29h29v-29h29v-29h29v-29h29v-29h29v-29h-29v-30h-29v-29h-29v-29h-29v-29h-29v-29h-29v-29h-29v-29h-94v29h29v29h29v29h29v29h29v29h29v29h29v30h29v29h-29v29h-29v29h-29v29h-29v29h-29v29h-29v29h-29v29z" glyph-name="guilsinglright" horiz-adv-x="377" unicode="›"/><glyph d="M340 700h87v-29h58v-29h29v-29h59v-30h-29v-59h-30v-87h-29v-58h-29v87h-29v58h-29v30h-29v29h-58v-29h-29v-30h-30v-29h-29v-29h-29v-58h-30v-27h185v-31h-185v-28h185v-31h-185v-28h30v-29h29v-60h59v-29h145v29h58v30h29v30h30v58h29v-118h-29v-29h-30v-58h-29v-29 h-58v-29h-58v-29h-146v29h-59v29h-29v29h-29v29h-29v58h-29v117h-48v31h48v28h-48v31h77v56h29v29h29v29h29v29h30v30h29v29h29v30h30v29h29v29h29v29z" glyph-name="Euro" horiz-adv-x="588" unicode="€"/><glyph d="M661 700h262v-29h-29v-58h-30v-468h30v-29h29v29h29v-58h-29v-29h-29v-29h-30v-29h-58v29h-58v29h-58v29h29v29h29v438h-58v-59h-29v-58h-29v-58h-29v-87h-30v-87h-29v-60h88v29h29v-58h-29v-29h-29v-29h-30v-29h-29v-29h-233v29h29v29h29v29h29v29h29v438h-58v-59h-29 v-58h-29v-58h-29v-87h-29v-87h-29v-60h87v29h29v-58h-29v-29h-29v-29h-29v-29h-29v-29h-234v29h29v29h29v29h29v29h29v29h29v60h29v58h30v58h30v58h29v58h29v58h29v59h29v29h-87v-29h-29v59h29v29h29v29h29v29h292v-29h-30v-58h30v29h29v29h29v29z" glyph-name="uniE000" horiz-adv-x="972" unicode=""/><glyph d="M68 699h116v-58h29v-59h30v-58h29v-58h29v-58h29v-58h30v-30h29v-58h29v-59h29v437h-29v30h-29v29h145v-29h29v-88h-29v29h-29v-495h29v29h29v-87h-29v-29h-29v-29h-116v29h-29v58h-30v58h-29v29h-29v59h-29v29h-30v58h-29v59h-29v58h-29v-379h29v-29h29v-29h-145v29h-29 v87h29v-29h29v495h-29v-29h-29v88h29v29h29v29z" glyph-name="uniE001" horiz-adv-x="573" unicode=""/><glyph d="M577 729h30v-58h-30v-29h-29v-263h-29v-29h-29v-29h-29v-29h-29v-29h-29v-29h-29v-88h29v-30h29v30h29v-59h-29v-29h-29v-43h-29v-42h-29v27h-29v29h-58v29h-59v29h30v29h29v118h-29v29h-60v29h-87v29h-29v58h29v29h29v117h29v29h29v29h-145v-29h-29v59h29v29h29v29h29 v29h176v29h29v-58h-29v-29h-29v-205h-30v-29h-30v-29h89v-29h58v-29h58v-29h29v29h29v204h29v29h29v29h-145v-29h-29v59h29v29h29v29h29v29h174v29z" glyph-name="uniE002" horiz-adv-x="603" unicode=""/><glyph d="M112 555h147v-29h29v-29h30v-29h29v-30h29v-29h29v-29h29v-29h-29v-29h-29v-205h29v29h29v-117h-29v-29h-58v29h-29v29h-30v29h-29v-29h-30v-29h-29v-29h-88v29h-29v29h-29v29h-29v147h29v29h29v30h29v29h30v29h117v-29h29v116h-29v30h-30v29h-29v-29h-29v-30h-29v-29 h-30v-29h-29v-29h-29v29h-29v88h29v29h29v29h29v29zM112 234v-59h30v-29h29v-29h29v-30h29v30h30v29h29v88h-29v29h-30v30h-58v-30h-29v-29h-30z" glyph-name="uniE003" horiz-adv-x="440" unicode=""/><glyph d="M112 555h147v-29h29v-29h30v-29h29v-30h29v-321h29v29h29v-117h-29v-29h-58v29h-29v29h-30v29h-29v-29h-30v-29h-29v-29h-88v29h-29v29h-29v29h-29v147h29v29h29v30h29v29h30v29h117v-29h29v116h-29v30h-30v29h-29v-29h-29v-30h-29v-29h-30v-29h-29v-29h-29v29h-29v88h29 v29h29v29h29v29zM112 234v-59h30v-29h29v-29h29v-30h29v30h30v29h29v88h-29v29h-30v30h-58v-30h-29v-29h-30z" glyph-name="uniE004" horiz-adv-x="440" unicode=""/><glyph d="M49 583h29v-30h145v-29h30v-29h29v-30h29v-29h29v-29h29v-291h29v29h29v-116h-29v-29h-58v29h-29v29h-29v29h-29v-29h-30v-29h-29v-29h-87v29h-29v29h-29v29h-29v175h29v29h29v29h29v29h29v29h87v-29h30v-29h29v87h-29v29h-146v29h-29v30h-29v88zM107 233v-59h29v-29h29 v-29h29v-29h29v29h30v29h29v88h-29v29h-30v29h-58v-29h-29v-29h-29z" glyph-name="uniE005" horiz-adv-x="433" unicode=""/><glyph d="M39 796h58v-30h29v-29h29v-269h30v29h29v29h30v29h87v-29h29v-29h29v-29h29v-262h-29v-30h-29v-29h-29v-30h-29v-43h-29v-29h-29v-32h-30v-41h-29v29h-30v29h-40v29h-47v29h-29v29h-29v30h29v29h29v503h-29v-29h-29v116h29v30zM155 409v-233h30v-29h29v-39h30v39h29v29 h29v44h29v160h-29v29h-29v29h-29v30h-30v-30h-29v-29h-30z" glyph-name="uniE006" horiz-adv-x="443" unicode=""/><glyph d="M259 797h59v-29h29v-29h29v-271h29v-29h30v-29h-30v-29h-29v-264h29v29h30v-117h-30v-29h-58v29h-29v30h-29v29h-30v-29h-30v-30h-29v-29h-29v-29h-29v29h-29v29h-30v30h-29v29h-29v263h29v30h29v29h30v29h29v29h29v29h29v30h29v29h60v124h-30v-29h-30v117h30v29z M113 351v-175h29v-30h29v-29h29v-29h29v29h30v29h30v264h-30v29h-30v22h-29v-36h-29v-29h-29v-45h-29z" glyph-name="uniE007" horiz-adv-x="450" unicode=""/><glyph d="M44 796h58v-29h30v-29h29v-270h29v29h29v29h30v29h58v-29h30v-29h29v-29h29v-30h58v-29h-29v-29h-29v-263h29v29h29v-88h-29v-29h-29v-29h-29v-29h-29v38h-30v20h-29v29h-29v30h29v29h29v263h-29v29h-29v29h-59v-29h-29v-321h29v-59h29v-29h-117v29h-29v29h-29v30h-29v29 h29v29h29v534h-29v-30h-29v117h29v29z" glyph-name="uniE008" horiz-adv-x="478" unicode=""/><glyph d="M44 795h58v-29h29v-29h30v-270h29v29h29v29h30v29h87v-29h29v-29h29v-58h-29v-29h-29v-30h-29v-29h29v-29h29v-29h29v-205h29v-58h30v-29h-117v29h-29v29h-29v29h-29v30h29v29h29v117h-29v29h-29v29h-30v-29h-29v-29h-29v-146h29v29h29v-88h-29v-29h-29v-29h-30v-29h-29 v38h-29v20h-29v29h-29v29h29v30h29v562h-29v-30h-29v117h29v29zM161 409v-88h29v29h29v29h30v30h29v29h-29v29h-30v-29h-29v-29h-29z" glyph-name="uniE009" horiz-adv-x="469" unicode=""/><glyph d="M44 796h58v-29h30v-29h29v-651h29v-58h29v-29h-117v29h-29v29h-29v29h-29v30h29v29h29v533h-29v-29h-29v117h29v29z" glyph-name="uniE00A" horiz-adv-x="240" unicode=""/><glyph d="M410 789h78v-29h29v-29h30v-176h87v-58h-29v-29h-58v-351h58v29h29v-88h-29v-43h-29v-44h-29v29h-47v29h-41v29h-58v59h29v29h29v322h-58v58h29v29h29v30h29v58h-29v59h-49v-29h-29v-30h-29v-292h-29v-29h-30v-29h-29v87h-29v58h-30v30h-29v-30h-29v-29h-30v-233h30v-59 h29v-29h29v-30h59v30h29v29h30v29h29v-58h-29v-30h-30v-29h-29v-29h-117v29h-59v29h-29v59h-29v292h29v29h29v30h29v29h30v29h29v29h88v-29h29v147h30v29h29v29h29v29h29v29z" glyph-name="uniE00B" horiz-adv-x="655" unicode=""/><glyph d="M137 742h29v-187h168v30h29v58h29v30h29v-118h87v-58h-29v-30h-58v-350h58v29h29v-88h-29v-43h-29v-44h-29v29h-29v29h-58v29h-59v59h29v29h30v321h-168v-350h59v29h29v-88h-29v-43h-30v-44h-29v29h-29v29h-59v29h-58v59h29v29h29v321h-58v59h29v65h29v63h29v59h30v29z " glyph-name="uniE00D" horiz-adv-x="529" unicode=""/><glyph d="M440 790h89v-29h29v-29h29v-176h87v-58h-29v-29h-58v-351h58v29h29v-88h-29v-43h-29v-44h-29v29h-46v29h-42v29h-59v59h30v29h29v322h-59v58h30v29h29v30h30v59h-30v58h-59v-29h-30v-29h-29v-235h-30v-29h-94v29h-31v30h-30v29h-31v-29h-31v-59h31v-29h31v-29h61v-29h32 v-29h31v-30h31v-29h30v-88h-30v-29h-31v-30h-31v-29h-32v-29h-123v29h-31v29h-31v30h-31v-30h-31v59h31v29h31v29h93v-29h31v-58h61v29h32v58h-32v30h-31v29h-61v30h-31v29h-31v29h-31v29h-31v88h31v29h31v29h31v29h31v29h87v-29h31v-29h31v-29h9v205h29v29h29v29h29v29h30 v29z" glyph-name="uniFB06" horiz-adv-x="695" unicode="ﬆ"/></font>
</defs>
</svg>
